<svg width="24" height="25" viewBox="0 0 24 25" fill="none" xmlns="http://www.w3.org/2000/svg">
<path d="M12 2.45251C6.48 2.45251 2 6.93251 2 12.4525C2 17.9725 6.48 22.4525 12 22.4525C17.52 22.4525 22 17.9725 22 12.4525C22 6.93251 17.52 2.45251 12 2.45251ZM9.29 16.7425L5.7 13.1525C5.31 12.7625 5.31 12.1325 5.7 11.7425C6.09 11.3525 6.72 11.3525 7.11 11.7425L10 14.6225L16.88 7.74251C17.27 7.35251 17.9 7.35251 18.29 7.74251C18.68 8.13251 18.68 8.76251 18.29 9.15251L10.7 16.7425C10.32 17.1325 9.68 17.1325 9.29 16.7425Z" fill="white"/>
</svg>
