<svg width="24" height="25" viewBox="0 0 24 25" fill="none" xmlns="http://www.w3.org/2000/svg">
<path d="M4.47012 20.9563H19.5301C21.0701 20.9563 22.0301 19.2863 21.2601 17.9563L13.7301 4.94629C12.9601 3.61629 11.0401 3.61629 10.2701 4.94629L2.74012 17.9563C1.97012 19.2863 2.93012 20.9563 4.47012 20.9563ZM12.0001 13.9563C11.4501 13.9563 11.0001 13.5063 11.0001 12.9563V10.9563C11.0001 10.4063 11.4501 9.95629 12.0001 9.95629C12.5501 9.95629 13.0001 10.4063 13.0001 10.9563V12.9563C13.0001 13.5063 12.5501 13.9563 12.0001 13.9563ZM13.0001 17.9563H11.0001V15.9563H13.0001V17.9563Z" fill="white"/>
</svg>
