<svg width="24" height="24" viewBox="0 0 24 24" fill="none" xmlns="http://www.w3.org/2000/svg">
<path d="M17.5046 3.67749C15.5546 3.67749 13.4546 4.07749 12.0046 5.17749C10.5546 4.07749 8.45464 3.67749 6.50464 3.67749C5.05464 3.67749 3.51464 3.89749 2.22464 4.46749C1.49464 4.79749 1.00464 5.50749 1.00464 6.31749V17.5975C1.00464 18.8975 2.22464 19.8575 3.48464 19.5375C4.46464 19.2875 5.50464 19.1775 6.50464 19.1775C8.06464 19.1775 9.72464 19.4375 11.0646 20.0975C11.6646 20.3975 12.3446 20.3975 12.9346 20.0975C14.2746 19.4275 15.9346 19.1775 17.4946 19.1775C18.4946 19.1775 19.5346 19.2875 20.5146 19.5375C21.7746 19.8675 22.9946 18.9075 22.9946 17.5975V6.31749C22.9946 5.50749 22.5046 4.79749 21.7746 4.46749C20.4946 3.89749 18.9546 3.67749 17.5046 3.67749ZM21.0046 16.4075C21.0046 17.0375 20.4246 17.4975 19.8046 17.3875C19.0546 17.2475 18.2746 17.1875 17.5046 17.1875C15.8046 17.1875 13.3546 17.8375 12.0046 18.6875V7.17749C13.3546 6.32749 15.8046 5.67749 17.5046 5.67749C18.4246 5.67749 19.3346 5.76749 20.2046 5.95749C20.6646 6.05749 21.0046 6.46749 21.0046 6.93749V16.4075Z" fill="white"/>
<path d="M13.9846 10.1875C13.6646 10.1875 13.3746 9.98749 13.2746 9.66749C13.1446 9.27749 13.3646 8.84749 13.7546 8.72749C15.2946 8.22749 17.2846 8.06749 19.1146 8.27749C19.5246 8.32749 19.8246 8.69749 19.7746 9.10749C19.7246 9.51749 19.3546 9.81749 18.9446 9.76749C17.3246 9.57749 15.5546 9.72749 14.2146 10.1575C14.1346 10.1675 14.0546 10.1875 13.9846 10.1875Z" fill="white"/>
<path d="M13.9846 12.8475C13.6646 12.8475 13.3746 12.6475 13.2746 12.3275C13.1446 11.9375 13.3646 11.5075 13.7546 11.3875C15.2846 10.8875 17.2846 10.7275 19.1146 10.9375C19.5246 10.9875 19.8246 11.3575 19.7746 11.7675C19.7246 12.1775 19.3546 12.4775 18.9446 12.4275C17.3246 12.2375 15.5546 12.3875 14.2146 12.8175C14.1346 12.8375 14.0546 12.8475 13.9846 12.8475Z" fill="white"/>
<path d="M13.9846 15.5075C13.6646 15.5075 13.3746 15.3075 13.2746 14.9875C13.1446 14.5975 13.3646 14.1675 13.7546 14.0475C15.2846 13.5475 17.2846 13.3875 19.1146 13.5975C19.5246 13.6475 19.8246 14.0175 19.7746 14.4275C19.7246 14.8375 19.3546 15.1275 18.9446 15.0875C17.3246 14.8975 15.5546 15.0475 14.2146 15.4775C14.1346 15.4975 14.0546 15.5075 13.9846 15.5075Z" fill="white"/>
</svg>
