<svg width="22" height="22" viewBox="0 0 22 22" fill="none" xmlns="http://www.w3.org/2000/svg">
<rect width="22" height="22" rx="11" fill="white"/>
<path d="M11.0007 13.6667C12.1052 13.6667 13.0007 12.7712 13.0007 11.6667C13.0007 10.5621 12.1052 9.66667 11.0007 9.66667C9.89608 9.66667 9.00065 10.5621 9.00065 11.6667C9.00065 12.7712 9.89608 13.6667 11.0007 13.6667Z" fill="#735AD8"/>
<path d="M16.334 6.33333H14.2207L13.394 5.43333C13.1473 5.16 12.7873 5 12.414 5H9.58732C9.21398 5 8.85398 5.16 8.60065 5.43333L7.78065 6.33333H5.66732C4.93398 6.33333 4.33398 6.93333 4.33398 7.66667V15.6667C4.33398 16.4 4.93398 17 5.66732 17H16.334C17.0673 17 17.6673 16.4 17.6673 15.6667V7.66667C17.6673 6.93333 17.0673 6.33333 16.334 6.33333ZM11.0007 15C9.16065 15 7.66732 13.5067 7.66732 11.6667C7.66732 9.82667 9.16065 8.33333 11.0007 8.33333C12.8407 8.33333 14.334 9.82667 14.334 11.6667C14.334 13.5067 12.8407 15 11.0007 15Z" fill="#735AD8"/>
</svg>
