<svg width="256" height="9" viewBox="0 0 256 9" fill="none" xmlns="http://www.w3.org/2000/svg">
<path d="M-6 1L0.7 7.68722L7.4 1L14.1 7.68722L20.8 1L27.5 7.68722L34.2 1L40.9 7.68722L47.6 1L54.3 7.68722L61 1L67.7 7.68722L74.4 1L81.1 7.68722L87.8 1L94.5 7.68722L101.2 1L107.9 7.68722L114.6 1L121.3 7.68722L128 1L134.7 7.68722L141.4 1L148.1 7.68722L154.8 1L161.5 7.68722L168.2 1L174.9 7.68722L181.6 1L188.3 7.68722L195 1L201.7 7.68722L208.4 1L215.1 7.68722L221.8 1L228.5 7.68722L235.2 1L241.9 7.68722L248.6 1L255.3 7.68722L262 1" stroke="#EAECF0"/>
</svg>
