<svg width="128" height="128" viewBox="0 0 128 128" fill="none" xmlns="http://www.w3.org/2000/svg">
<path d="M44.677 86.2671C49.9599 90.1452 57.3009 81.0761 63.8544 81.1083C70.4079 81.1408 77.6594 90.2813 82.9802 86.4554C88.301 82.6293 81.9443 72.8451 84.0001 66.6224C86.0558 60.3996 96.9901 56.3276 94.9956 50.0849C93.0011 43.8423 81.7314 46.8644 76.4485 42.9863C71.1656 39.1082 70.6718 27.4508 64.1183 27.4185C57.5649 27.3859 56.9565 39.0384 51.6357 42.8643C46.3149 46.6903 35.0754 43.5576 33.0197 49.7804C30.9639 56.003 41.8577 60.1823 43.8521 66.425C45.8466 72.6677 39.394 82.389 44.677 86.2671Z" fill="url(#paint0_linear_1732_25859)"/>
<path d="M50.4564 102.177C57.6982 99.686 61.5465 100.242 63.1124 104.794C64.6784 109.347 60.0772 115.056 52.8354 117.547C45.5936 120.038 38.9008 119.668 37.8635 116.652C36.8261 113.636 43.2146 104.668 50.4564 102.177Z" fill="url(#paint1_linear_1732_25859)"/>
<path d="M30.4707 94.3198C37.3054 94.1163 40.439 95.6107 40.567 99.9071C40.6949 104.203 35.2581 107.851 28.4234 108.055C21.5887 108.258 15.981 106.168 15.8962 103.322C15.8114 100.476 23.6361 94.5234 30.4707 94.3198Z" fill="url(#paint2_linear_1732_25859)"/>
<path d="M20.1909 78.7553C26.0683 80.1793 28.3919 82.1865 27.4967 85.8812C26.6016 89.5758 21.1113 91.4165 15.2339 89.9925C9.35646 88.5685 5.06183 85.4743 5.65482 83.0268C6.2478 80.5793 14.3134 77.3313 20.1909 78.7553Z" fill="url(#paint3_linear_1732_25859)"/>
<path d="M19.4727 60.8124C24.5581 64.0851 26.0949 66.7434 24.0376 69.9401C21.9803 73.1368 16.19 73.0752 11.1046 69.8024C6.01922 66.5296 2.97687 62.1981 4.33972 60.0805C5.70257 57.9628 14.3873 57.5396 19.4727 60.8124Z" fill="url(#paint4_linear_1732_25859)"/>
<path d="M20.1674 43.9844C23.5746 47.8838 24.2081 50.4354 21.7569 52.5772C19.3057 54.7191 14.5566 53.2943 11.1494 49.3949C7.74216 45.4955 6.26704 41.2099 7.89082 39.7911C9.5146 38.3722 16.7602 40.085 20.1674 43.9844Z" fill="url(#paint5_linear_1732_25859)"/>
<path d="M26.6578 28.5002C28.228 33.4347 27.7917 36.0274 24.6899 37.0144C21.588 38.0014 17.8006 34.8014 16.2305 29.8669C14.6603 24.9325 15.016 20.4141 17.0708 19.7603C19.1256 19.1064 25.0877 23.5658 26.6578 28.5002Z" fill="url(#paint6_linear_1732_25859)"/>
<path d="M37.4372 20.638C36.538 24.5099 35.2332 26.0496 32.7993 25.4844C30.3654 24.9192 29.1213 21.3222 30.0204 17.4503C30.9196 13.5784 32.9264 10.7363 34.5387 11.1108C36.1511 11.4852 38.3363 16.7661 37.4372 20.638Z" fill="url(#paint7_linear_1732_25859)"/>
<path d="M51.1345 18.6282C47.9758 21.0412 45.9893 21.3977 44.4724 19.4121C42.9556 17.4265 44.2866 13.8607 47.4453 11.4477C50.604 9.03467 53.961 8.12103 54.9659 9.43638C55.9707 10.7517 54.2932 16.2152 51.1345 18.6282Z" fill="url(#paint8_linear_1732_25859)"/>
<path d="M77.6104 102.177C70.3686 99.686 66.5202 100.242 64.9543 104.794C63.3884 109.347 67.9896 115.056 75.2313 117.547C82.4731 120.038 89.1659 119.668 90.2032 116.652C91.2406 113.636 84.8521 104.668 77.6104 102.177Z" fill="url(#paint9_linear_1732_25859)"/>
<path d="M97.596 94.3198C90.7613 94.1163 87.6277 95.6107 87.4998 99.9071C87.3718 104.203 92.8087 107.851 99.6433 108.055C106.478 108.258 112.086 106.168 112.171 103.322C112.255 100.476 104.431 94.5234 97.596 94.3198Z" fill="url(#paint10_linear_1732_25859)"/>
<path d="M107.876 78.7553C101.999 80.1793 99.675 82.1865 100.57 85.8812C101.465 89.5758 106.955 91.4165 112.833 89.9925C118.71 88.5685 123.005 85.4743 122.412 83.0268C121.819 80.5793 113.753 77.3313 107.876 78.7553Z" fill="url(#paint11_linear_1732_25859)"/>
<path d="M108.594 60.8124C103.509 64.0851 101.972 66.7434 104.029 69.9401C106.087 73.1368 111.877 73.0752 116.962 69.8024C122.048 66.5296 125.09 62.1981 123.727 60.0805C122.364 57.9628 113.68 57.5396 108.594 60.8124Z" fill="url(#paint12_linear_1732_25859)"/>
<path d="M107.9 43.9844C104.492 47.8838 103.859 50.4354 106.31 52.5772C108.761 54.7191 113.51 53.2943 116.918 49.3949C120.325 45.4955 121.8 41.2099 120.176 39.7911C118.552 38.3722 111.307 40.085 107.9 43.9844Z" fill="url(#paint13_linear_1732_25859)"/>
<path d="M101.409 28.5002C99.8392 33.4347 100.275 36.0274 103.377 37.0144C106.479 38.0014 110.267 34.8014 111.837 29.8669C113.407 24.9325 113.051 20.4141 110.996 19.7603C108.942 19.1064 102.98 23.5658 101.409 28.5002Z" fill="url(#paint14_linear_1732_25859)"/>
<path d="M90.6296 20.638C91.5288 24.5099 92.8336 26.0496 95.2675 25.4844C97.7014 24.9192 98.9456 21.3222 98.0464 17.4503C97.1472 13.5784 95.1404 10.7363 93.5281 11.1108C91.9157 11.4852 89.7305 16.7661 90.6296 20.638Z" fill="url(#paint15_linear_1732_25859)"/>
<path d="M76.9322 18.6282C80.0909 21.0412 82.0774 21.3977 83.5942 19.4121C85.1111 17.4265 83.7801 13.8607 80.6214 11.4477C77.4627 9.03467 74.1056 8.12103 73.1008 9.43638C72.096 10.7517 73.7735 16.2152 76.9322 18.6282Z" fill="url(#paint16_linear_1732_25859)"/>
<path d="M64.5251 74.0351L64.0305 74.0276H63.5137L63.0118 74.0053L62.5098 73.983L62.5541 72.9864L63.0487 73.0087L63.5359 73.031H64.0305H64.5324L64.5251 74.0351ZM67.6254 73.6882L67.3966 72.7138L67.8838 72.603L68.4153 72.4775L68.8361 72.3668L69.3159 72.2339L69.5816 73.1935L69.1018 73.3264L68.6589 73.4445L68.1126 73.5774L67.6254 73.6882ZM59.4537 73.4889L58.9665 73.3708C58.6265 73.2868 58.2935 73.1876 57.9699 73.0829L57.4975 72.9278L57.8075 71.9756L58.28 72.1306C58.5906 72.2311 58.8955 72.3279 59.2027 72.4037L59.6899 72.5218L59.4537 73.4889ZM72.468 72.0789L72.0251 71.1857L72.468 70.9643L72.9109 70.7428L73.339 70.5066L73.7746 70.2704L74.2618 71.1415L73.8189 71.385L73.3759 71.6286L72.9183 71.8575L72.468 72.0789ZM54.6481 71.7467L54.2052 71.5179C53.9092 71.3634 53.6055 71.2062 53.3046 71.0307L52.8764 70.7797L53.3784 69.916L53.8139 70.167C54.0889 70.3274 54.3754 70.4782 54.6702 70.6321L55.1131 70.8609L54.6481 71.7467ZM76.8233 69.4584L76.2253 68.6611L76.624 68.3585L76.838 68.196L77.3991 67.7531L77.7829 67.4357L78.4104 68.2182L78.0191 68.5282L77.4581 68.9859L77.2219 69.1557L76.8233 69.4584ZM50.3297 69.0671L49.9384 68.7645L49.6653 68.5504L49.1486 68.1222L48.7573 67.8048L49.3995 67.0371L49.7834 67.3545L50.2928 67.7753L50.5511 67.9672L50.9424 68.2772L50.3297 69.0671Z" fill="#787878"/>
<defs>
<linearGradient id="paint0_linear_1732_25859" x1="68.5506" y1="79.3476" x2="68.5506" y2="28.47" gradientUnits="userSpaceOnUse">
<stop stop-color="#B5B5B5"/>
<stop offset="1" stop-color="#EDEDED"/>
</linearGradient>
<linearGradient id="paint1_linear_1732_25859" x1="62.4001" y1="102.4" x2="39.2001" y2="116.8" gradientUnits="userSpaceOnUse">
<stop stop-color="#B5B5B5"/>
<stop offset="1" stop-color="#EDEDED"/>
</linearGradient>
<linearGradient id="paint2_linear_1732_25859" x1="40.8002" y1="96.0002" x2="16.8002" y2="104.8" gradientUnits="userSpaceOnUse">
<stop stop-color="#B5B5B5"/>
<stop offset="1" stop-color="#EDEDED"/>
</linearGradient>
<linearGradient id="paint3_linear_1732_25859" x1="28.8001" y1="83.9994" x2="4.0001" y2="83.9994" gradientUnits="userSpaceOnUse">
<stop stop-color="#B5B5B5"/>
<stop offset="1" stop-color="#EDEDED"/>
</linearGradient>
<linearGradient id="paint4_linear_1732_25859" x1="24.8001" y1="68.7991" x2="5.6001" y2="60.7991" gradientUnits="userSpaceOnUse">
<stop stop-color="#B5B5B5"/>
<stop offset="1" stop-color="#EDEDED"/>
</linearGradient>
<linearGradient id="paint5_linear_1732_25859" x1="24.0003" y1="50.7209" x2="9.60029" y2="39.9997" gradientUnits="userSpaceOnUse">
<stop stop-color="#B5B5B5"/>
<stop offset="1" stop-color="#EDEDED"/>
</linearGradient>
<linearGradient id="paint6_linear_1732_25859" x1="26.4005" y1="35.2002" x2="22.2939" y2="20.0031" gradientUnits="userSpaceOnUse">
<stop stop-color="#B5B5B5"/>
<stop offset="1" stop-color="#EDEDED"/>
</linearGradient>
<linearGradient id="paint7_linear_1732_25859" x1="34.2642" y1="23.6503" x2="34.2642" y2="11.3322" gradientUnits="userSpaceOnUse">
<stop stop-color="#B5B5B5"/>
<stop offset="1" stop-color="#EDEDED"/>
</linearGradient>
<linearGradient id="paint8_linear_1732_25859" x1="50.3823" y1="19.1062" x2="55.9996" y2="8.79961" gradientUnits="userSpaceOnUse">
<stop stop-color="#B5B5B5"/>
<stop offset="1" stop-color="#EDEDED"/>
</linearGradient>
<linearGradient id="paint9_linear_1732_25859" x1="67.2" y1="102.4" x2="89.6" y2="117.6" gradientUnits="userSpaceOnUse">
<stop stop-color="#B5B5B5"/>
<stop offset="1" stop-color="#EDEDED"/>
</linearGradient>
<linearGradient id="paint10_linear_1732_25859" x1="87.9999" y1="97.6002" x2="111.2" y2="104.8" gradientUnits="userSpaceOnUse">
<stop stop-color="#B5B5B5"/>
<stop offset="1" stop-color="#EDEDED"/>
</linearGradient>
<linearGradient id="paint11_linear_1732_25859" x1="100.8" y1="83.9994" x2="123.2" y2="83.1994" gradientUnits="userSpaceOnUse">
<stop stop-color="#B5B5B5"/>
<stop offset="1" stop-color="#EDEDED"/>
</linearGradient>
<linearGradient id="paint12_linear_1732_25859" x1="102.4" y1="65.5991" x2="123.2" y2="60.7991" gradientUnits="userSpaceOnUse">
<stop stop-color="#B5B5B5"/>
<stop offset="1" stop-color="#EDEDED"/>
</linearGradient>
<linearGradient id="paint13_linear_1732_25859" x1="104.8" y1="51.1997" x2="113.999" y2="39.5477" gradientUnits="userSpaceOnUse">
<stop offset="0.0481665" stop-color="#B5B5B5"/>
<stop offset="1" stop-color="#EDEDED"/>
</linearGradient>
<linearGradient id="paint14_linear_1732_25859" x1="107.563" y1="34.8465" x2="112" y2="20.8002" gradientUnits="userSpaceOnUse">
<stop stop-color="#B5B5B5"/>
<stop offset="1" stop-color="#EDEDED"/>
</linearGradient>
<linearGradient id="paint15_linear_1732_25859" x1="94.9561" y1="23.6503" x2="94.9561" y2="11.3322" gradientUnits="userSpaceOnUse">
<stop stop-color="#B5B5B5"/>
<stop offset="1" stop-color="#EDEDED"/>
</linearGradient>
<linearGradient id="paint16_linear_1732_25859" x1="86.3999" y1="16.7996" x2="79.3467" y2="9.04199" gradientUnits="userSpaceOnUse">
<stop stop-color="#B5B5B5"/>
<stop offset="1" stop-color="#EDEDED"/>
</linearGradient>
</defs>
</svg>
