<svg width="31" height="18" viewBox="0 0 31 18" fill="none" xmlns="http://www.w3.org/2000/svg">
<path d="M24.4848 2.87085C23.7279 2.88262 22.9926 3.1254 22.3775 3.56667C21.7625 4.00794 21.2969 4.62662 21.0432 5.33985C21.015 5.41268 20.9211 5.71808 20.9211 5.71808L18.748 15.1266H23.7401C24.5746 15.111 25.3799 14.8167 26.0278 14.2905C26.6758 13.7644 27.1291 13.0366 27.3156 12.223L29.4745 2.87085H24.4848Z" fill="#16B14B"/>
<path d="M16.1764 0.148193C15.3778 0.149665 14.6015 0.411791 13.9655 0.894741C13.3294 1.37769 12.8685 2.05506 12.6526 2.82393C12.6197 2.94139 12.5938 3.05885 12.5703 3.17866L9.1875 17.8517H14.1748C14.9916 17.8487 15.784 17.5732 16.4265 17.069C17.0691 16.5647 17.525 15.8606 17.7221 15.0679L21.166 0.148193H16.1764Z" fill="#F27227"/>
<path d="M6.6121 2.87085C5.82652 2.88359 5.0651 3.1445 4.43681 3.61625C3.80851 4.088 3.34554 4.74641 3.11415 5.49725L3.08126 5.60062L2.99904 5.9295L0.884766 15.1266H5.99661C6.73703 15.1152 7.45589 14.8756 8.05504 14.4404C8.65418 14.0053 9.1044 13.3958 9.34422 12.6952L9.54625 11.8189L11.6112 2.87085H6.6121Z" fill="#1169B0"/>
<path d="M5.67988 5.92725H5.60236C5.23458 5.9312 4.88007 6.06519 4.6016 6.30547C4.34407 6.50374 4.15046 6.77332 4.04485 7.0807L2.89844 12.0539H2.96421C3.33519 12.0497 3.69283 11.915 3.97437 11.6734C4.27021 11.4427 4.47827 11.1177 4.56402 10.7525L4.81303 9.67421H7.0894C7.46048 9.66834 7.81783 9.53288 8.09956 9.29129C8.3946 9.0633 8.60202 8.74055 8.68686 8.37745L8.70095 8.31168H5.13017L5.36509 7.28508H8.45898C8.82543 7.28229 9.17909 7.14997 9.45739 6.91156C9.74894 6.6798 9.9548 6.35737 10.0423 5.99537L10.0564 5.92959L5.67988 5.92725Z" fill="white"/>
<path d="M18.3112 6.22302C18.2114 6.12403 18.0924 6.04651 17.9615 5.9952C17.8306 5.9439 17.6906 5.91989 17.5501 5.92467H13.183L11.7734 12.0537H11.8392C12.2095 12.0494 12.5663 11.9146 12.847 11.6731C13.1429 11.4424 13.3509 11.1175 13.4367 10.7523L13.6904 9.66224H16.7138C17.0639 9.6887 17.4116 9.5859 17.6911 9.37329C17.9952 9.11158 18.209 8.76052 18.3019 8.37018L18.5673 7.23552C18.5868 7.14353 18.5978 7.04996 18.6002 6.95596C18.6057 6.82041 18.5828 6.68521 18.5331 6.559C18.4833 6.43279 18.4078 6.31836 18.3112 6.22302ZM16.9487 8.3091H14.0005L14.2354 7.2825H17.1836L16.9487 8.3091Z" fill="white"/>
<path d="M27.1885 6.22308C27.0893 6.12413 26.9706 6.04676 26.84 5.99582C26.7095 5.94488 26.5698 5.92148 26.4297 5.92708H21.8347V5.96937C21.814 6.05797 21.803 6.14855 21.8018 6.23953C21.7911 6.37769 21.8094 6.51656 21.8555 6.64724C21.9016 6.77792 21.9745 6.8975 22.0696 6.99831C22.1692 7.09745 22.2883 7.17492 22.4193 7.22585C22.5502 7.27679 22.6903 7.3001 22.8308 7.29431H23.7939L22.6969 12.0632H22.7603C23.1313 12.059 23.4889 11.9242 23.7704 11.6826C24.0654 11.4515 24.2726 11.1266 24.3577 10.7617L25.1635 7.29431H27.4375V7.25203C27.456 7.15993 27.4662 7.06638 27.4681 6.97247C27.4762 6.83498 27.4556 6.6973 27.4074 6.56825C27.3593 6.43921 27.2847 6.32164 27.1885 6.22308Z" fill="white"/>
<path d="M27.8867 14.0696C27.8867 13.8604 27.9488 13.6559 28.065 13.482C28.1813 13.3081 28.3466 13.1726 28.5399 13.0927C28.7332 13.0128 28.9458 12.992 29.151 13.0329C29.3561 13.0739 29.5444 13.1748 29.6922 13.3229C29.8399 13.471 29.9404 13.6596 29.981 13.8648C30.0215 14.07 30.0002 14.2826 29.9198 14.4758C29.8395 14.6689 29.7036 14.8338 29.5295 14.9497C29.3553 15.0656 29.1507 15.1272 28.9415 15.1267C28.8028 15.1267 28.6654 15.0994 28.5373 15.0462C28.4092 14.9931 28.2928 14.9151 28.1948 14.817C28.0969 14.7188 28.0192 14.6022 27.9663 14.474C27.9135 14.3457 27.8864 14.2083 27.8867 14.0696ZM29.7426 14.0696C29.7325 13.9137 29.6771 13.7643 29.5832 13.6395C29.4893 13.5147 29.3609 13.4201 29.2139 13.3673C29.067 13.3146 28.9078 13.3059 28.7559 13.3424C28.6041 13.3789 28.4662 13.459 28.3593 13.5728C28.2524 13.6866 28.1811 13.8292 28.1541 13.983C28.1272 14.1369 28.1458 14.2952 28.2076 14.4386C28.2695 14.582 28.3719 14.7042 28.5023 14.7901C28.6327 14.8761 28.7853 14.922 28.9415 14.9223C29.0508 14.9212 29.1587 14.898 29.2588 14.8541C29.3589 14.8102 29.4491 14.7465 29.5239 14.6668C29.5988 14.5872 29.6567 14.4932 29.6943 14.3905C29.7319 14.2879 29.7483 14.1787 29.7426 14.0696ZM28.5351 13.4682H28.9814C29.2657 13.4682 29.4231 13.5669 29.4231 13.8206C29.4261 13.863 29.4201 13.9056 29.4055 13.9456C29.3908 13.9855 29.3679 14.0219 29.3381 14.0523C29.3084 14.0828 29.2725 14.1065 29.2329 14.122C29.1933 14.1376 29.1508 14.1445 29.1083 14.1424L29.4301 14.6639H29.1952L28.8875 14.1495H28.7512V14.6639H28.5163L28.5351 13.4682ZM28.77 13.9803H28.9673C29.0966 13.9803 29.2023 13.9615 29.2023 13.8018C29.2023 13.642 29.0731 13.6373 28.9673 13.6373H28.7677L28.77 13.9803Z" fill="#1169B0"/>
</svg>
