<svg width="20" height="20" viewBox="0 0 20 20" fill="none" xmlns="http://www.w3.org/2000/svg">
<path d="M9.99166 1.66669C5.39166 1.66669 1.66666 5.40002 1.66666 10C1.66666 14.6 5.39166 18.3334 9.99166 18.3334C14.6 18.3334 18.3333 14.6 18.3333 10C18.3333 5.40002 14.6 1.66669 9.99166 1.66669ZM13.3333 13.3334C13.0083 13.6584 12.4833 13.6584 12.1583 13.3334L9.41666 10.5917C9.25832 10.4334 9.16666 10.225 9.16666 10V6.66669C9.16666 6.20835 9.54166 5.83335 9.99999 5.83335C10.4583 5.83335 10.8333 6.20835 10.8333 6.66669V9.65835L13.3333 12.1584C13.6583 12.4834 13.6583 13.0084 13.3333 13.3334Z" fill="#735AD8"/>
</svg>
