<svg width="24" height="24" viewBox="0 0 24 24" fill="none" xmlns="http://www.w3.org/2000/svg">
<path d="M12.0011 21.7499C13.1011 21.7499 14.0011 20.8499 14.0011 19.7499H10.0011C10.0011 20.8499 10.8911 21.7499 12.0011 21.7499ZM18.0011 15.7499V10.7499C18.0011 7.6799 16.3611 5.1099 13.5011 4.4299V3.7499C13.5011 2.9199 12.8311 2.2499 12.0011 2.2499C11.1711 2.2499 10.5011 2.9199 10.5011 3.7499V4.4299C7.63106 5.1099 6.00106 7.6699 6.00106 10.7499V15.7499L4.71106 17.0399C4.08106 17.6699 4.52106 18.7499 5.41106 18.7499H18.5811C19.4711 18.7499 19.9211 17.6699 19.2911 17.0399L18.0011 15.7499Z" fill="white"/>
</svg>
