<svg width="20" height="20" viewBox="0 0 20 20" fill="none" xmlns="http://www.w3.org/2000/svg">
<path d="M10.664 18.3335C9.09761 18.5059 8.65926 15.7348 7.29068 14.9535C5.92196 14.1726 3.31306 15.204 2.66504 13.7676C2.01702 12.3311 4.5171 11.0579 4.83714 9.51491C5.1572 7.97192 3.3698 5.80936 4.53568 4.74917C5.70156 3.689 7.68503 5.67324 9.25141 5.50083C10.8178 5.3284 12.3222 2.96021 13.6907 3.74142C15.0594 4.52239 13.7851 7.0222 14.4331 8.45863C15.0811 9.89506 17.7983 10.594 17.4782 12.137C17.1582 13.68 14.3872 13.2405 13.2213 14.3007C12.0554 15.3609 12.2304 18.1611 10.664 18.3335Z" fill="url(#paint0_linear_1254_9018)"/>
<defs>
<linearGradient id="paint0_linear_1254_9018" x1="14.5044" y1="2.3853" x2="6.9715" y2="15.4326" gradientUnits="userSpaceOnUse">
<stop stop-color="#0CC8EF"/>
<stop offset="1" stop-color="#047AFA"/>
</linearGradient>
</defs>
</svg>
