<svg width="15" height="14" viewBox="0 0 15 14" fill="none" xmlns="http://www.w3.org/2000/svg">
<g clip-path="url(#clip0_1889_15239)">
<path d="M14.9727 5.83333L13.6893 0H2.25599L0.986656 5.70675L0.972656 6.41667C0.974772 6.97975 1.18217 7.52273 1.55599 7.94383V12.25C1.55599 12.7141 1.74036 13.1592 2.06855 13.4874C2.39674 13.8156 2.84186 14 3.30599 14H12.6393C13.1035 14 13.5486 13.8156 13.8768 13.4874C14.2049 13.1592 14.3893 12.7141 14.3893 12.25V7.94383C14.7631 7.52273 14.9705 6.97975 14.9727 6.41667V5.83333ZM2.13932 5.89692L3.18932 1.16667H5.05599V3.5H6.22266V1.16667H9.72266V3.5H10.8893V1.16667H12.756L13.806 5.89692V6.41667C13.806 6.72609 13.6831 7.02283 13.4643 7.24162C13.2455 7.46042 12.9487 7.58333 12.6393 7.58333H12.056C11.7466 7.58333 11.4498 7.46042 11.231 7.24162C11.0122 7.02283 10.8893 6.72609 10.8893 6.41667H9.72266C9.72266 6.72609 9.59974 7.02283 9.38095 7.24162C9.16215 7.46042 8.86541 7.58333 8.55599 7.58333H7.38932C7.0799 7.58333 6.78316 7.46042 6.56436 7.24162C6.34557 7.02283 6.22266 6.72609 6.22266 6.41667H5.05599C5.05599 6.72609 4.93307 7.02283 4.71428 7.24162C4.49549 7.46042 4.19874 7.58333 3.88932 7.58333H3.30599C2.99657 7.58333 2.69982 7.46042 2.48103 7.24162C2.26224 7.02283 2.13932 6.72609 2.13932 6.41667V5.89692ZM12.6393 12.8333H3.30599C3.15128 12.8333 3.00291 12.7719 2.89351 12.6625C2.78411 12.5531 2.72266 12.4047 2.72266 12.25V8.66717C2.91274 8.7197 3.1088 8.74754 3.30599 8.75H3.88932C4.22176 8.74893 4.55008 8.67638 4.85202 8.53729C5.15396 8.3982 5.42247 8.1958 5.63932 7.94383C5.85618 8.1958 6.12468 8.3982 6.42662 8.53729C6.72857 8.67638 7.05689 8.74893 7.38932 8.75H8.55599C8.88721 8.75017 9.21466 8.67965 9.51645 8.54314C9.81824 8.40663 10.0874 8.20728 10.306 7.95842C10.5246 8.20728 10.7937 8.40663 11.0955 8.54314C11.3973 8.67965 11.7248 8.75017 12.056 8.75H12.6393C12.8365 8.74754 13.0326 8.7197 13.2227 8.66717V12.25C13.2227 12.4047 13.1612 12.5531 13.0518 12.6625C12.9424 12.7719 12.794 12.8333 12.6393 12.8333Z" fill="#818181"/>
</g>
<defs>
<clipPath id="clip0_1889_15239">
<rect width="14" height="14" fill="white" transform="translate(0.972656)"/>
</clipPath>
</defs>
</svg>
