<svg width="21" height="20" viewBox="0 0 21 20" fill="none" xmlns="http://www.w3.org/2000/svg">
<path d="M7.16406 15.0001C6.2474 15.0001 5.50573 15.7501 5.50573 16.6667C5.50573 17.5834 6.2474 18.3334 7.16406 18.3334C8.08073 18.3334 8.83073 17.5834 8.83073 16.6667C8.83073 15.7501 8.08073 15.0001 7.16406 15.0001ZM2.16406 2.50008C2.16406 2.95841 2.53906 3.33341 2.9974 3.33341H3.83073L6.83073 9.65842L5.70573 11.6917C5.0974 12.8084 5.8974 14.1667 7.16406 14.1667H16.3307C16.7891 14.1667 17.1641 13.7917 17.1641 13.3334C17.1641 12.8751 16.7891 12.5001 16.3307 12.5001H7.16406L8.08073 10.8334H14.2891C14.9141 10.8334 15.4641 10.4917 15.7474 9.97508L18.7307 4.56675C19.0391 4.01675 18.6391 3.33341 18.0057 3.33341H5.6724L5.11406 2.14175C4.98073 1.85008 4.68073 1.66675 4.36406 1.66675H2.9974C2.53906 1.66675 2.16406 2.04175 2.16406 2.50008ZM15.4974 15.0001C14.5807 15.0001 13.8391 15.7501 13.8391 16.6667C13.8391 17.5834 14.5807 18.3334 15.4974 18.3334C16.4141 18.3334 17.1641 17.5834 17.1641 16.6667C17.1641 15.7501 16.4141 15.0001 15.4974 15.0001Z" fill="white"/>
</svg>
