<svg width="24" height="24" viewBox="0 0 24 24" fill="none" xmlns="http://www.w3.org/2000/svg">
<path d="M18.2606 22.3895H5.73505C3.75823 22.3895 2.15576 20.787 2.15576 18.8103V7.06445H21.84V18.8102C21.84 20.787 20.2374 22.3895 18.2606 22.3895Z" fill="url(#paint0_linear_1112_9850)"/>
<path d="M4.1978 1.54749C2.43155 1.54749 0.999756 2.98374 0.999756 4.75549V7.98399C0.999756 9.50749 2.231 10.7425 3.74976 10.7425C5.26851 10.7425 6.49976 9.50749 6.49976 7.98399V1.54749H4.1978Z" fill="#F79009"/>
<path d="M9.24976 10.7426C7.73095 10.7426 6.49976 9.51137 6.49976 7.99256V1.54749H11.9998V7.99256C11.9998 9.51131 10.7686 10.7426 9.24976 10.7426Z" fill="#FEC84B"/>
<path d="M14.7498 10.7426C13.2309 10.7426 11.9998 9.51137 11.9998 7.99256V1.54749H17.4998V7.99256C17.4998 9.51131 16.2686 10.7426 14.7498 10.7426Z" fill="#F79009"/>
<path d="M19.8017 1.54749H17.4998V7.98399C17.4998 9.50749 18.731 10.7425 20.2498 10.7425C21.7685 10.7425 22.9998 9.50749 22.9998 7.98399V4.75549C22.9998 2.98374 21.568 1.54749 19.8017 1.54749Z" fill="#FEC84B"/>
<path d="M15.0553 11.3555C13.0303 11.3555 11.3887 13.0022 11.3887 15.0335V22.3895H18.722V15.0335C18.722 13.0022 17.0804 11.3555 15.0553 11.3555Z" fill="url(#paint1_linear_1112_9850)"/>
<path d="M8.64132 16.8725H4.96952C4.46468 16.8725 4.05542 16.4632 4.05542 15.9584V14.1055C4.05542 12.5867 5.28661 11.3555 6.80542 11.3555C8.32423 11.3555 9.55542 12.5867 9.55542 14.1055V15.9584C9.55542 16.4632 9.14616 16.8725 8.64132 16.8725Z" fill="url(#paint2_linear_1112_9850)"/>
<defs>
<linearGradient id="paint0_linear_1112_9850" x1="13" y1="22.5474" x2="13.5" y2="10.0474" gradientUnits="userSpaceOnUse">
<stop stop-color="#E84D00"/>
<stop offset="0.1096" stop-color="#EC5100"/>
<stop offset="0.6095" stop-color="#FA6100"/>
<stop offset="1" stop-color="#FF6700"/>
</linearGradient>
<linearGradient id="paint1_linear_1112_9850" x1="15.0554" y1="11.4868" x2="15.0554" y2="22.6894" gradientUnits="userSpaceOnUse">
<stop stop-color="#FFC200"/>
<stop offset="0.69247" stop-color="#FFBB00"/>
<stop offset="0.922939" stop-color="#FFA801"/>
<stop offset="1" stop-color="#FF9102"/>
</linearGradient>
<linearGradient id="paint2_linear_1112_9850" x1="6.80554" y1="11.4214" x2="6.80554" y2="17.0221" gradientUnits="userSpaceOnUse">
<stop stop-color="#FFEACA"/>
<stop offset="1" stop-color="#FFD9B1"/>
</linearGradient>
</defs>
</svg>
