<svg width="24" height="24" viewBox="0 0 24 24" fill="none" xmlns="http://www.w3.org/2000/svg">
<path d="M12 10.5403L11.4365 7.59035L12 4.17635L14.8222 1.35419C15.2071 0.996579 15.6931 0.75 16.2108 0.75H20.6026C20.9551 0.75 21.375 0.975844 21.375 1.48327V1.97217C21.375 2.625 21.1593 2.82859 20.9092 3.09083L12 12V10.5403Z" fill="url(#paint0_linear_1448_20537)"/>
<path d="M12 10.5403V4.17635L9.17784 1.35419C8.79292 0.996579 8.30694 0.75 7.78922 0.75H3.39743C3.04491 0.75 2.625 0.975844 2.625 1.48327V1.97217C2.625 2.625 2.84067 2.82859 3.09083 3.09083L12 12V10.5403Z" fill="url(#paint1_linear_1448_20537)"/>
<path d="M12.0118 3.49219C12.5377 3.49219 12.8719 3.92315 12.9611 4.44141L13.3361 6.62109C13.4252 7.13935 10.5985 7.13935 10.6876 6.62109L11.0626 4.44141C11.1518 3.92315 11.486 3.49219 12.0118 3.49219Z" fill="url(#paint2_linear_1448_20537)"/>
<path d="M16.392 8.37149C16.392 8.37149 15.9739 12.3645 15.4545 12.3645H8.5459C8.02652 12.3645 7.6084 8.37149 7.6084 8.37149C7.6084 5.08649 16.392 4.81375 16.392 8.37149Z" fill="url(#paint3_linear_1448_20537)"/>
<path d="M12 23.25C12.9941 23.25 13.9786 23.0542 14.897 22.6737C15.8155 22.2933 16.6501 21.7357 17.353 21.0327C18.056 20.3297 18.6136 19.4952 18.9941 18.5767C19.3745 17.6582 19.5703 16.6738 19.5703 15.6797C19.5703 14.6855 19.3745 13.7011 18.9941 12.7827C18.6136 11.8642 18.056 11.0296 17.353 10.3267C16.6501 9.6237 15.8155 9.06607 14.897 8.68563C13.9786 8.30519 12.9941 8.10937 12 8.10938C11.0059 8.10937 10.0214 8.30519 9.10297 8.68563C8.18449 9.06607 7.34995 9.6237 6.64698 10.3267C5.94401 11.0296 5.38639 11.8642 5.00594 12.7827C4.6255 13.7011 4.42969 14.6855 4.42969 15.6797C4.42969 16.6738 4.6255 17.6582 5.00594 18.5767C5.38639 19.4952 5.94401 20.3297 6.64698 21.0327C7.34995 21.7357 8.18449 22.2933 9.10297 22.6737C10.0214 23.0542 11.0059 23.25 12 23.25Z" fill="url(#paint4_linear_1448_20537)"/>
<path d="M11.8176 11.7751C10.3658 11.7751 9.26807 13.0915 9.26807 14.5669C9.26832 15.0848 9.68854 15.5044 10.2065 15.5039C10.7239 15.5037 11.1433 15.0843 11.1435 14.5669C11.1435 13.9055 11.4378 13.6506 11.8176 13.6506C12.1497 13.6506 12.4582 13.8525 12.5595 14.1627C12.6606 14.4726 12.6453 15.0611 11.7318 15.9759C11.5838 16.1241 9.57534 17.9566 9.57534 17.9566C8.94678 18.5346 9.35529 19.5836 10.2093 19.5843H13.7941C14.312 19.5848 14.7323 19.1652 14.7325 18.6472C14.7323 18.1293 14.312 17.7097 13.7941 17.7102H12.6162C12.6162 17.7102 13.0469 17.3141 13.0564 17.3046C14.2883 16.0727 14.7052 14.6983 14.3408 13.5814C13.9764 12.4645 12.9234 11.7751 11.8176 11.7751Z" fill="url(#paint5_linear_1448_20537)"/>
<path d="M11.7425 9.61527L11.7508 9.80212L12.1204 9.79794L12.1231 9.61108L11.7425 9.61527ZM12.6962 9.6471L12.6699 9.83257L13.038 9.88794L13.0685 9.70385L12.6962 9.6471ZM11.1737 9.66509L10.7986 9.72876L10.8345 9.91284L11.1999 9.85056L11.1737 9.66509ZM13.6291 9.8298L13.5751 10.0097L13.9308 10.1205L13.9889 9.94191L13.6291 9.8298ZM10.2421 9.86717L9.88505 9.98758L9.94733 10.1648L10.3003 10.0457L10.2421 9.86717ZM14.5204 10.1564L14.4429 10.3267L14.7737 10.4914L14.8609 10.3253L14.5204 10.1564ZM9.35771 10.2132L9.02137 10.389L9.11272 10.5537L9.44075 10.3821L9.35771 10.2132ZM15.3536 10.6187L15.2471 10.7724L15.5516 10.9883L15.6623 10.8374L15.3536 10.6187ZM8.53416 10.6935L8.23243 10.9191L8.34593 11.0686L8.64489 10.8443L8.53416 10.6935ZM16.1011 11.2056L15.9737 11.3426L16.2381 11.6015L16.3737 11.47L16.1011 11.2056ZM7.80059 11.2969L7.53484 11.5682L7.67187 11.6956L7.93208 11.4312L7.80059 11.2969ZM16.7516 11.9004L16.6035 12.0153L16.8263 12.3143L16.9772 12.2035L16.7516 11.9004ZM7.16529 12.0056L6.9466 12.3129L7.10023 12.4208L7.31754 12.1163L7.16529 12.0056ZM17.2831 12.688L17.1198 12.7807L17.2914 13.1074L17.4603 13.0243L17.2831 12.688ZM6.65178 12.8056L6.48292 13.1461L6.65317 13.225L6.81787 12.8928L6.65178 12.8056ZM17.6872 13.5517L17.5101 13.6139L17.6305 13.9669L17.8077 13.9088L17.6872 13.5517ZM6.267 13.6762L6.1535 14.0375L6.33344 14.0901L6.44555 13.7344L6.267 13.6762ZM17.9488 14.4652L17.7648 14.5012L17.8284 14.8679L18.0139 14.8375L17.9488 14.4652ZM6.02617 14.5967L5.96942 14.969L6.15489 14.9953L6.21025 14.6271L6.02617 14.5967ZM18.0637 15.4091L17.8755 15.4161L17.881 15.7856L18.0679 15.7884L18.0637 15.4091ZM5.93066 15.542L5.93205 15.9199L6.12028 15.9171L6.1189 15.5448L5.93066 15.542ZM17.8478 16.3351L17.7938 16.7046L17.9779 16.7351L18.0347 16.3614L17.8478 16.3351ZM6.17011 16.4666L5.98326 16.4915L6.04554 16.8666L6.22963 16.8306L6.17011 16.4666ZM17.6734 17.2417L17.5627 17.5974L17.7412 17.6555L17.8533 17.2957L17.6734 17.2417ZM6.36112 17.3662L6.18257 17.4244C6.18257 17.4244 6.24254 17.6641 6.30299 17.7815L6.48015 17.7192L6.36112 17.3662ZM17.3578 18.1095L17.1945 18.4417L17.3606 18.5289L17.5281 18.1884L17.3578 18.1095ZM6.69469 18.2258L6.52721 18.3102L6.70023 18.6452L6.86632 18.558L6.69469 18.2258ZM16.9149 18.9151L16.699 19.2196L16.8499 19.3303L17.0686 19.023L16.9149 18.9151ZM7.15698 19.023L7.00611 19.1337L7.23034 19.4355L7.37982 19.322L7.15698 19.023ZM16.346 19.6431L16.0886 19.9088L16.2187 20.0431L16.4845 19.7704L16.346 19.6431ZM7.74107 19.7372L7.60681 19.8687L7.87395 20.1345L8.00544 20.0002L7.74107 19.7372ZM15.6748 20.2743L15.3772 20.4971L15.4879 20.6493L15.7896 20.4224L15.6748 20.2743ZM8.4262 20.3545L8.31548 20.5054L8.62275 20.7241L8.72932 20.5705L8.4262 20.3545ZM14.9107 20.7919L14.5841 20.9649L14.6671 21.1338L15.0035 20.9552L14.9107 20.7919ZM9.2013 20.8556L9.11272 21.0203L9.44906 21.1919L9.53349 21.0244L9.2013 20.8556ZM14.0789 21.185L13.7259 21.3054L13.7841 21.484L14.1412 21.3622L14.0789 21.185ZM10.0415 21.2307L9.98332 21.4078L10.3432 21.5213L10.3972 21.3414L10.0415 21.2307ZM13.1931 21.441L12.8263 21.5061L12.8567 21.6916L13.2277 21.6251L13.1931 21.441ZM10.9328 21.466L10.9024 21.6514L11.2761 21.7082L11.3024 21.5227L10.9328 21.466ZM12.2768 21.5559L11.8505 21.5601L11.8491 21.7483L12.2851 21.7428L12.2768 21.5559Z" fill="#6E98F5"/>
<defs>
<linearGradient id="paint0_linear_1448_20537" x1="19.1721" y1="0.609449" x2="14.1966" y2="6.88181" gradientUnits="userSpaceOnUse">
<stop stop-color="#0CC8EF"/>
<stop offset="1" stop-color="#047AFA"/>
</linearGradient>
<linearGradient id="paint1_linear_1448_20537" x1="9.42165" y1="6.18732" x2="3.18756" y2="0.0467717" gradientUnits="userSpaceOnUse">
<stop stop-color="#D90947"/>
<stop offset="1" stop-color="#FF585B"/>
</linearGradient>
<linearGradient id="paint2_linear_1448_20537" x1="12.0119" y1="3.49228" x2="12.0119" y2="6.68055" gradientUnits="userSpaceOnUse">
<stop stop-color="#F5F8FF"/>
<stop offset="1" stop-color="#79C6FF"/>
</linearGradient>
<linearGradient id="paint3_linear_1448_20537" x1="12.0007" y1="5.74648" x2="12.0007" y2="10.5406" gradientUnits="userSpaceOnUse">
<stop stop-color="#F5F8FF"/>
<stop offset="1" stop-color="#79C6FF"/>
</linearGradient>
<linearGradient id="paint4_linear_1448_20537" x1="12.0005" y1="9.03685" x2="12.0005" y2="23.2498" gradientUnits="userSpaceOnUse">
<stop stop-color="#F5F8FF"/>
<stop offset="1" stop-color="#79C6FF"/>
</linearGradient>
<linearGradient id="paint5_linear_1448_20537" x1="13.5213" y1="11.6776" x2="9.97453" y2="15.2192" gradientUnits="userSpaceOnUse">
<stop stop-color="#0CC8EF"/>
<stop offset="1" stop-color="#047AFA"/>
</linearGradient>
</defs>
</svg>
