<svg width="20" height="20" viewBox="0 0 20 20" fill="none" xmlns="http://www.w3.org/2000/svg">
<path fill-rule="evenodd" clip-rule="evenodd" d="M17.8373 13.3375C17.8373 18.9917 12.1831 19.6875 12.1831 19.6875H7.97062C7.97062 19.6875 7.68728 19.675 7.24145 19.6083H7.23728C5.75812 19.3958 2.53728 18.6042 2.20395 15.775C1.94145 13.55 2.89562 12.4417 4.08728 10.9542C5.02478 9.79167 4.33728 8.07917 4.29562 7.975C4.39145 8.025 5.92062 8.88333 6.29562 9.6125C6.491 9.96971 6.64745 10.3469 6.76228 10.7375C6.76228 10.7375 6.40395 7.9375 7.84562 6.06667C9.28728 4.19583 9.58728 3.61667 9.61645 2.65833C9.55634 1.84374 9.34288 1.04784 8.98728 0.3125C10.0059 0.892338 10.9007 1.66674 11.6206 2.59167C11.6206 2.59167 11.8998 2.9625 12.0206 3.14583C12.1831 3.37917 12.3165 3.57917 12.4456 3.77083C13.1263 4.86704 13.5071 6.12284 13.5498 7.4125C13.9245 7.04304 14.217 6.59862 14.4081 6.10833C14.5537 5.54957 14.5863 4.96736 14.504 4.39583L15.3831 5.88333C16.3706 7.69167 17.8373 10.8042 17.8373 13.3375Z" fill="url(#paint0_linear_1046_17686)"/>
<path fill-rule="evenodd" clip-rule="evenodd" d="M13.854 16.2793C13.7873 19.1168 12.029 19.6876 12.029 19.6876H7.97067C7.97067 19.6876 7.68733 19.6751 7.2415 19.6084H7.23733C6.29567 19.1584 5.75817 17.9418 5.68317 17.2501C5.62892 16.886 5.64876 16.5147 5.7415 16.1584C5.91157 15.5132 6.25275 14.9258 6.729 14.4584C7.94567 13.1543 8.72483 12.6668 9.0415 11.2001C9.15191 10.5672 9.17156 9.92186 9.09983 9.28345C9.84763 9.75825 10.4809 10.3929 10.954 11.1418C11.3258 11.7272 11.5318 12.4026 11.5498 13.0959C11.7514 12.8977 11.909 12.6592 12.0123 12.3959C12.0889 12.0924 12.1059 11.7768 12.0623 11.4668C12.0623 11.4668 13.904 14.0168 13.854 16.2793Z" fill="#FFC880"/>
<path fill-rule="evenodd" clip-rule="evenodd" d="M12.2106 12.1575C12.2524 12.4406 12.2369 12.7292 12.1652 13.0063C12.0711 13.2477 11.9274 13.4667 11.7435 13.6492C11.7259 13.014 11.5378 12.3951 11.199 11.8575C10.765 11.1717 10.1848 10.5903 9.49979 10.155C9.56478 10.7402 9.54669 11.3316 9.44604 11.9117C9.15771 13.2567 8.44146 13.7009 7.33021 14.895C7.20647 15.0198 7.09082 15.1522 6.98396 15.2917C6.70162 15.6259 6.50841 16.0261 6.42229 16.455C6.33723 16.7813 6.31894 17.1215 6.36854 17.455C6.44146 18.1292 7.00021 19.3517 7.97396 19.6871H12.1835C12.1835 19.6871 13.7915 19.1667 13.8531 16.5642C13.9006 14.4909 12.2106 12.1575 12.2106 12.1575Z" fill="white"/>
<defs>
<linearGradient id="paint0_linear_1046_17686" x1="9.99921" y1="18.5001" x2="9.99921" y2="0.312295" gradientUnits="userSpaceOnUse">
<stop stop-color="#FF7E3F"/>
<stop offset="1" stop-color="#FFBE3F"/>
</linearGradient>
</defs>
</svg>
