<svg width="32" height="32" viewBox="0 0 32 32" fill="none" xmlns="http://www.w3.org/2000/svg">
<path d="M7.375 22.8186L8.36024 27.71C8.36024 27.71 8.92531 29.7518 7.1814 29.7518H3.07813C2.18338 29.7518 0.999835 28.6292 1 26.3723C1.00017 24.1155 7.375 22.8186 7.375 22.8186Z" fill="url(#paint0_linear_2134_28914)"/>
<path d="M24.6141 22.8186L23.6289 27.71C23.6289 27.71 23.0638 29.7518 24.8077 29.7518H28.911C29.8057 29.7518 30.9893 28.6292 30.9891 26.3723C30.9889 24.1155 24.6141 22.8186 24.6141 22.8186Z" fill="url(#paint1_linear_2134_28914)"/>
<path d="M18.3497 16.9114C19.6704 17.8809 21.5057 15.6136 23.144 15.6217C24.7824 15.6298 26.5953 17.9149 27.9255 16.9584C29.2557 16.0019 27.6665 13.5559 28.1804 12.0002C28.6944 10.4445 31.4279 9.4265 30.9293 7.86584C30.4307 6.30518 27.6133 7.0607 26.2925 6.09118C24.9718 5.12165 24.8484 2.2073 23.21 2.19924C21.5716 2.19109 21.4195 5.1042 20.0893 6.06069C18.7591 7.01718 15.9493 6.234 15.4353 7.78969C14.9214 9.34537 17.6448 10.3902 18.1435 11.9509C18.6421 13.5115 17.0289 15.9419 18.3497 16.9114Z" fill="url(#paint2_linear_2134_28914)"/>
<path d="M13.6382 16.9114C12.3175 17.8809 10.4822 15.6136 8.84382 15.6217C7.20545 15.6298 5.39257 17.9149 4.06237 16.9584C2.73217 16.0019 4.32135 13.5559 3.8074 12.0002C3.29347 10.4445 0.559902 9.4265 1.05852 7.86584C1.55715 6.30518 4.37457 7.0607 5.6953 6.09118C7.01603 5.12165 7.13948 2.2073 8.77786 2.19924C10.4162 2.19109 10.5683 5.1042 11.8985 6.06069C13.2287 7.01718 16.0386 6.234 16.5525 7.78969C17.0664 9.34537 14.343 10.3902 13.8444 11.9509C13.3458 13.5115 14.9589 15.9419 13.6382 16.9114Z" fill="url(#paint3_linear_2134_28914)"/>
<path d="M21.9652 21.6437C20.3343 22.8409 18.068 20.0411 16.0448 20.0511C14.0217 20.0611 11.783 22.8829 10.1404 21.7018C8.49783 20.5207 10.4602 17.5001 9.82559 15.5791C9.19096 13.658 5.8154 12.401 6.43112 10.4738C7.04685 8.54658 10.526 9.47953 12.1569 8.28232C13.7878 7.0851 13.9402 3.48629 15.9634 3.47634C17.9865 3.46628 18.1743 7.06355 19.8169 8.24467C21.4595 9.4258 24.9293 8.45869 25.5639 10.3797C26.1986 12.3008 22.8355 13.591 22.2198 15.5182C21.6041 17.4454 23.5961 20.4465 21.9652 21.6437Z" fill="url(#paint4_linear_2134_28914)"/>
<path d="M4.75 19.578C12.3121 18.2633 19.8103 18.3001 27.25 19.578C27.9325 19.6952 28.5 20.1355 28.5 20.828V25.7084C28.5 26.4009 27.9282 26.789 27.25 26.6491C19.6314 25.0765 12.1375 25.1579 4.75 26.6491C4.07119 26.7861 3.5 26.3457 3.5 25.6532V20.828C3.5 20.1355 4.06773 19.6966 4.75 19.578Z" fill="url(#paint5_linear_2134_28914)"/>
<path d="M16.3008 19.6433L16.1753 19.6452L15.9261 19.6471L15.8007 19.649L15.8025 19.9L15.928 19.8981L16.179 19.8962L16.3045 19.8943L16.3008 19.6433ZM17.0537 19.6433L17.0518 19.8943H17.1773L17.3471 19.8962L17.4265 19.8981L17.552 19.9L17.5556 19.649L17.432 19.6471L17.349 19.6452H17.1792L17.0537 19.6433ZM15.0459 19.6655L14.9204 19.6691L14.6712 19.6784L14.5457 19.6821L14.555 19.9331L14.6786 19.9294L14.9296 19.9201L15.0551 19.9164L15.0459 19.6655ZM18.3105 19.6655L18.3012 19.9146L18.4267 19.9202L18.6759 19.9275L18.8014 19.9331L18.8106 19.6821L18.6851 19.6784L18.4341 19.6692L18.3105 19.6655ZM13.7928 19.7153L13.6691 19.7227L13.5953 19.7245L13.4181 19.7356L13.2926 19.743L13.3074 19.9921L13.4311 19.9848L13.6082 19.9755L13.6802 19.9718L13.8057 19.9662L13.7928 19.7153ZM19.5636 19.7172L19.5488 19.9663L19.6743 19.9737L19.881 19.9848L19.9234 19.9866L20.0489 19.994L20.0637 19.7449L19.94 19.7375L19.8958 19.7338L19.6872 19.7227L19.5636 19.7172ZM12.5415 19.791L12.4161 19.8002L12.3109 19.8076L12.1651 19.8187L12.0414 19.8298L12.0599 20.0789L12.1854 20.0696L12.3293 20.0567L12.4345 20.0494L12.5582 20.042L12.5415 19.791ZM20.8148 19.7966L20.7963 20.0457L20.9218 20.055H20.9292L21.1691 20.0753L21.2946 20.0863L21.3149 19.8372L21.1913 19.8261L20.9495 19.8058H20.9402L20.8148 19.7966ZM11.2903 19.8944L11.1667 19.9054L11.1039 19.911L10.9157 19.9295L10.792 19.9424L10.816 20.1915L10.9415 20.1786L11.1279 20.1602L11.1888 20.1546L11.3143 20.1435L11.2903 19.8944ZM22.066 19.9054L22.0402 20.1546L22.1638 20.1675L22.413 20.1952L22.5385 20.2081L22.5643 19.959L22.4388 19.946L22.1897 19.9184L22.066 19.9054ZM10.0428 20.0236L9.91913 20.0383L9.66999 20.066L9.5445 20.0808L9.57403 20.3299L9.69767 20.3151L9.94681 20.2856L10.0705 20.2727L10.0428 20.0236ZM23.3117 20.0475L23.2804 20.2967L23.4058 20.3115L23.6199 20.3391L23.6513 20.3428L23.7768 20.3613L23.81 20.1121L23.6864 20.0955L23.6531 20.09L23.4372 20.0641L23.3117 20.0475ZM8.79708 20.1786L8.67344 20.1952L8.42614 20.2303L8.30065 20.2469L8.33571 20.496L8.45936 20.4775L8.7085 20.4443L8.83215 20.4259L8.79708 20.1786ZM24.5556 20.221L24.5187 20.4683L24.6423 20.4868L24.718 20.4978L24.8878 20.5255L25.0114 20.5458L25.052 20.2985L24.9284 20.2782L24.7567 20.2505L24.6792 20.2395L24.5556 20.221ZM7.55693 20.3613L7.43328 20.3816L7.18599 20.4222L7.06234 20.4425L7.10109 20.6898L7.22474 20.6695L7.47203 20.6289L7.59568 20.6086L7.55693 20.3613ZM25.7957 20.4259L25.7496 20.6713L25.8714 20.6953L26.1168 20.7414L26.2405 20.7636L26.2866 20.5181L26.1648 20.4942L25.9175 20.448L25.7957 20.4259ZM6.31861 20.5735L6.19497 20.5975L5.94952 20.6455L5.82772 20.6695L5.87385 20.9149L5.9975 20.8909L6.24295 20.8429L6.3666 20.8208L6.31861 20.5735ZM27.0267 20.6658L26.975 20.9112L27.0968 20.9371L27.3422 20.9906L27.464 21.0164L27.5157 20.771L27.3939 20.7451L27.1485 20.6916L27.0267 20.6658ZM5.08768 20.8245L4.96588 20.8522L4.85146 20.878L4.72043 20.9094L4.59863 20.9389L4.65769 21.1825L4.77949 21.153L4.90867 21.1216L5.02125 21.0976L5.14305 21.0699L5.08768 20.8245Z" fill="#8C092F"/>
<path d="M16.3413 21.4334L17.1265 22.2186C17.3156 22.4077 17.3156 22.7122 17.1265 22.9013L16.3413 23.6865C16.1521 23.8757 15.8476 23.8757 15.6585 23.6865L14.8733 22.9013C14.6842 22.7122 14.6842 22.4077 14.8733 22.2186L15.6585 21.4334C15.8476 21.2442 16.1521 21.2442 16.3413 21.4334Z" fill="url(#paint6_linear_2134_28914)"/>
<path d="M10.1694 21.9959L10.9546 22.7811C11.1437 22.9702 11.1437 23.2747 10.9546 23.4638L10.1694 24.249C9.98027 24.4382 9.67575 24.4382 9.48662 24.249L8.70142 23.4638C8.51229 23.2747 8.51229 22.9702 8.70142 22.7811L9.48662 21.9959C9.67575 21.8067 9.98027 21.8067 10.1694 21.9959Z" fill="url(#paint7_linear_2134_28914)"/>
<path d="M22.5132 21.9959L23.2984 22.7811C23.4875 22.9702 23.4875 23.2747 23.2984 23.4638L22.5132 24.249C22.324 24.4382 22.0195 24.4382 21.8304 24.249L21.0452 23.4638C20.856 23.2747 20.856 22.9702 21.0452 22.7811L21.8304 21.9959C22.0195 21.8067 22.324 21.8067 22.5132 21.9959Z" fill="url(#paint8_linear_2134_28914)"/>
<defs>
<linearGradient id="paint0_linear_2134_28914" x1="6.5537" y1="25.3114" x2="1.46173" y2="30.4034" gradientUnits="userSpaceOnUse">
<stop stop-color="#D90947"/>
<stop offset="1" stop-color="#FF585B"/>
</linearGradient>
<linearGradient id="paint1_linear_2134_28914" x1="25.4351" y1="25.3114" x2="30.527" y2="30.4034" gradientUnits="userSpaceOnUse">
<stop stop-color="#D90947"/>
<stop offset="1" stop-color="#FF585B"/>
</linearGradient>
<linearGradient id="paint2_linear_2134_28914" x1="19.6055" y1="12.3708" x2="24.4719" y2="3.49342" gradientUnits="userSpaceOnUse">
<stop stop-color="#FF623F"/>
<stop offset="1" stop-color="#FFBE3F"/>
</linearGradient>
<linearGradient id="paint3_linear_2134_28914" x1="12.3829" y1="12.3708" x2="7.5165" y2="3.49342" gradientUnits="userSpaceOnUse">
<stop stop-color="#FF623F"/>
<stop offset="1" stop-color="#FFBE3F"/>
</linearGradient>
<linearGradient id="paint4_linear_2134_28914" x1="16.5425" y1="21.5772" x2="16.508" y2="4.06334" gradientUnits="userSpaceOnUse">
<stop stop-color="#FF7E3F"/>
<stop offset="1" stop-color="#FFBE3F"/>
</linearGradient>
<linearGradient id="paint5_linear_2134_28914" x1="16.6167" y1="19.6431" x2="16.6876" y2="26.9395" gradientUnits="userSpaceOnUse">
<stop stop-color="#D90947"/>
<stop offset="1" stop-color="#FF585B"/>
</linearGradient>
<linearGradient id="paint6_linear_2134_28914" x1="15.9959" y1="21.2404" x2="15.9959" y2="23.7012" gradientUnits="userSpaceOnUse">
<stop stop-color="#F5F8FF"/>
<stop offset="1" stop-color="#79C6FF"/>
</linearGradient>
<linearGradient id="paint7_linear_2134_28914" x1="9.82396" y1="21.8036" x2="9.82396" y2="24.2644" gradientUnits="userSpaceOnUse">
<stop stop-color="#F5F8FF"/>
<stop offset="1" stop-color="#79C6FF"/>
</linearGradient>
<linearGradient id="paint8_linear_2134_28914" x1="22.1679" y1="21.8036" x2="22.1679" y2="24.2644" gradientUnits="userSpaceOnUse">
<stop stop-color="#F5F8FF"/>
<stop offset="1" stop-color="#79C6FF"/>
</linearGradient>
</defs>
</svg>
