<svg width="20" height="20" viewBox="0 0 20 20" fill="none" xmlns="http://www.w3.org/2000/svg">
<path d="M16.491 3.28291C17.1773 3.96924 17.1773 5.08213 16.491 5.76885L14.0051 8.25478L12.4859 9.77393L10 12.2599L7.51406 9.77393L5.99492 8.25478L3.50898 5.76885C3.16563 5.42549 2.99414 4.97549 2.99414 4.52588C2.99414 4.07588 3.16563 3.62588 3.50898 3.28291C4.19531 2.59658 5.30859 2.59658 5.99492 3.28291L10 7.28799L14.0051 3.28291C14.3484 2.93994 14.798 2.76807 15.248 2.76807C15.698 2.76807 16.1477 2.93994 16.491 3.28291Z" fill="url(#paint0_linear_1254_8270)"/>
<path d="M16.491 8.25479C17.1773 8.94111 17.1773 10.054 16.491 10.7407L12.4859 14.7458L10 17.2317L7.51406 14.7458L3.50898 10.7407C3.16563 10.3974 2.99414 9.94736 2.99414 9.49775C2.99414 9.04775 3.16563 8.59775 3.50898 8.25479C4.19531 7.56807 5.30859 7.56807 5.99492 8.25479L7.51406 9.77393L10 12.2599L12.4859 9.77393L14.0051 8.25479C14.3484 7.91143 14.798 7.73994 15.248 7.73994C15.698 7.73994 16.1477 7.91143 16.491 8.25479Z" fill="url(#paint1_linear_1254_8270)"/>
<defs>
<linearGradient id="paint0_linear_1254_8270" x1="11.0179" y1="4.8372" x2="11.0179" y2="11.1862" gradientUnits="userSpaceOnUse">
<stop stop-color="#DC5980"/>
<stop offset="1" stop-color="#F96B6D"/>
</linearGradient>
<linearGradient id="paint1_linear_1254_8270" x1="10.3456" y1="8.95969" x2="10.5204" y2="17.5372" gradientUnits="userSpaceOnUse">
<stop stop-color="#D90947"/>
<stop offset="1" stop-color="#FF585B"/>
</linearGradient>
</defs>
</svg>
