<svg width="12" height="12" viewBox="0 0 12 12" fill="none" xmlns="http://www.w3.org/2000/svg">
<path d="M11.7888 4.18008L11.7955 4.14008C11.9021 3.72675 11.5955 3.33341 11.1755 3.33341H9.33547L9.80213 1.47341C9.90213 1.06008 9.59547 0.666748 9.17547 0.666748C8.87547 0.666748 8.62213 0.866748 8.5488 1.15341L8.00213 3.33341H5.33547L5.80213 1.47341C5.90213 1.06008 5.59547 0.666748 5.17547 0.666748C4.87547 0.666748 4.62213 0.866748 4.5488 1.15341L4.00213 3.33341H1.84213C1.54213 3.33341 1.28213 3.53341 1.21547 3.82008L1.20213 3.86008C1.10213 4.27341 1.4088 4.66675 1.8288 4.66675H3.6688L3.00213 7.33341H0.842133C0.542133 7.33341 0.2888 7.53341 0.215466 7.82008L0.202133 7.86008C0.102133 8.27341 0.4088 8.66675 0.8288 8.66675H2.6688L2.20213 10.5267C2.10213 10.9401 2.4088 11.3334 2.8288 11.3334C3.1288 11.3334 3.38213 11.1334 3.45547 10.8467L4.00213 8.66675H6.6688L6.20213 10.5267C6.10213 10.9401 6.4088 11.3334 6.8288 11.3334C7.1288 11.3334 7.38213 11.1334 7.45547 10.8467L8.00213 8.66675H10.1621C10.4621 8.66675 10.7155 8.46675 10.7888 8.18008L10.7955 8.14008C10.8955 7.73341 10.5888 7.33341 10.1688 7.33341H8.33547L9.00213 4.66675H11.1621C11.4621 4.66675 11.7221 4.46675 11.7888 4.18008ZM7.00213 7.33341H4.33547L5.00213 4.66675H7.6688L7.00213 7.33341Z" fill="#735AD8"/>
</svg>
