<svg width="20" height="20" viewBox="0 0 20 20" fill="none" xmlns="http://www.w3.org/2000/svg">
<path d="M10.7904 2.29314L6.17376 6.9098C5.86543 7.21814 5.69043 7.64314 5.69043 8.08481V16.4098C5.69043 17.3265 6.44043 18.0765 7.3571 18.0765H14.8571C15.5238 18.0765 16.1238 17.6765 16.3904 17.0681L19.1071 10.7265C19.8071 9.07647 18.5988 7.24314 16.8071 7.24314H12.0988L12.8904 3.42647C12.9738 3.0098 12.8488 2.5848 12.5488 2.2848C12.0571 1.80147 11.2738 1.80147 10.7904 2.29314ZM2.3571 18.0765C3.27376 18.0765 4.02376 17.3265 4.02376 16.4098V9.74314C4.02376 8.82647 3.27376 8.07647 2.3571 8.07647C1.44043 8.07647 0.69043 8.82647 0.69043 9.74314V16.4098C0.69043 17.3265 1.44043 18.0765 2.3571 18.0765Z" fill="#12B76A"/>
</svg>
