<svg width="24" height="24" viewBox="0 0 24 24" fill="none" xmlns="http://www.w3.org/2000/svg">
<g clip-path="url(#clip0_1112_9863)">
<path d="M17.1608 8.10005C17.1608 10.8141 14.9577 13.036 12.2436 13.036C9.52954 13.036 7.32642 10.8188 7.32642 8.10005C7.32642 5.3813 9.52954 3.18286 12.2436 3.18286C14.9577 3.18286 17.1608 5.3813 17.1608 8.10005Z" fill="url(#paint0_linear_1112_9863)"/>
<path d="M12.2435 11.5829C14.1618 11.5829 15.7169 10.0278 15.7169 8.10942C15.7169 6.1911 14.1618 4.63599 12.2435 4.63599C10.3251 4.63599 8.77002 6.1911 8.77002 8.10942C8.77002 10.0278 10.3251 11.5829 12.2435 11.5829Z" fill="#FFDA00"/>
<path d="M19.4997 24.0047H5.40908C4.30283 24.0047 3.40283 23.1047 3.40283 21.9984V11.6156C3.40283 10.5094 4.30283 9.60938 5.40908 9.60938H19.4997C20.606 9.60938 21.506 10.5094 21.506 11.6156V22.0031C21.506 23.1094 20.6106 24.0047 19.4997 24.0047Z" fill="url(#paint1_linear_1112_9863)"/>
<path d="M18.356 19.2563H21.5622C22.0028 19.2563 22.3544 18.9 22.3544 18.4641V15.5532C22.3544 15.1125 21.9981 14.761 21.5622 14.761H18.356C17.1138 14.761 16.106 15.7688 16.106 17.011C16.106 18.2485 17.1138 19.2563 18.356 19.2563Z" fill="#C14B00"/>
<path d="M18.3092 17.9062C18.8062 17.9062 19.2092 17.5033 19.2092 17.0062C19.2092 16.5091 18.8062 16.1062 18.3092 16.1062C17.8121 16.1062 17.4092 16.5091 17.4092 17.0062C17.4092 17.5033 17.8121 17.9062 18.3092 17.9062Z" fill="#5B40C3"/>
<path d="M7.18101 2.7C7.18101 4.19062 5.97163 5.41406 4.48101 5.41406C2.99038 5.41406 1.78101 4.19531 1.78101 2.7C1.78101 1.20469 2.99038 0 4.48101 0C5.97163 0 7.18101 1.20937 7.18101 2.7Z" fill="url(#paint2_linear_1112_9863)"/>
<path d="M4.48105 4.61714C5.53471 4.61714 6.38887 3.76298 6.38887 2.70933C6.38887 1.65567 5.53471 0.801514 4.48105 0.801514C3.4274 0.801514 2.57324 1.65567 2.57324 2.70933C2.57324 3.76298 3.4274 4.61714 4.48105 4.61714Z" fill="#FFDA00"/>
<path d="M22.5747 4.40625C22.5747 5.58281 21.6185 6.54844 20.4419 6.54844C19.2653 6.54844 18.3091 5.5875 18.3091 4.40625C18.3091 3.225 19.2653 2.27344 20.4419 2.27344C21.6185 2.27344 22.5747 3.225 22.5747 4.40625Z" fill="url(#paint3_linear_1112_9863)"/>
<path d="M20.442 5.92036C21.2756 5.92036 21.9514 5.24459 21.9514 4.41099C21.9514 3.57738 21.2756 2.90161 20.442 2.90161C19.6084 2.90161 18.9326 3.57738 18.9326 4.41099C18.9326 5.24459 19.6084 5.92036 20.442 5.92036Z" fill="#FFDA00"/>
</g>
<defs>
<linearGradient id="paint0_linear_1112_9863" x1="7.32463" y1="8.1076" x2="17.1591" y2="8.1076" gradientUnits="userSpaceOnUse">
<stop stop-color="#FFB600"/>
<stop offset="1" stop-color="#FF9100"/>
</linearGradient>
<linearGradient id="paint1_linear_1112_9863" x1="3.40602" y1="16.8082" x2="21.5071" y2="16.8082" gradientUnits="userSpaceOnUse">
<stop stop-color="#E84D00"/>
<stop offset="0.1096" stop-color="#EC5100"/>
<stop offset="0.6095" stop-color="#FA6100"/>
<stop offset="1" stop-color="#FF6700"/>
</linearGradient>
<linearGradient id="paint2_linear_1112_9863" x1="1.77852" y1="2.70708" x2="7.18307" y2="2.70708" gradientUnits="userSpaceOnUse">
<stop stop-color="#FFB600"/>
<stop offset="1" stop-color="#FF9100"/>
</linearGradient>
<linearGradient id="paint3_linear_1112_9863" x1="18.3076" y1="4.40873" x2="22.5753" y2="4.40873" gradientUnits="userSpaceOnUse">
<stop stop-color="#FFB600"/>
<stop offset="1" stop-color="#FF9100"/>
</linearGradient>
<clipPath id="clip0_1112_9863">
<rect width="24" height="24" fill="white" transform="translate(-0.000244141)"/>
</clipPath>
</defs>
</svg>
