<svg xmlns="http://www.w3.org/2000/svg" xmlns:xlink="http://www.w3.org/1999/xlink" width="500" zoomAndPan="magnify" viewBox="0 0 375 374.999991" height="500" preserveAspectRatio="xMidYMid meet" version="1.0"><defs><clipPath id="567a61062b"><path d="M 52.265625 1 L 148 1 L 148 109 L 52.265625 109 Z M 52.265625 1 " clip-rule="nonzero"/></clipPath><clipPath id="b15e0d43c4"><path d="M 192 327 L 209 327 L 209 343.246094 L 192 343.246094 Z M 192 327 " clip-rule="nonzero"/></clipPath><clipPath id="f7b870e7b4"><path d="M 162.121094 43.246094 L 202 43.246094 L 202 336 L 162.121094 336 Z M 162.121094 43.246094 " clip-rule="nonzero"/></clipPath><clipPath id="8b2e13b3a2"><path d="M 192 327 L 209 327 L 209 343.246094 L 192 343.246094 Z M 192 327 " clip-rule="nonzero"/></clipPath><clipPath id="aa5a6eeddc"><path d="M 162.121094 43.246094 L 202 43.246094 L 202 336 L 162.121094 336 Z M 162.121094 43.246094 " clip-rule="nonzero"/></clipPath><clipPath id="97ffefe76e"><path d="M 205 253 L 221.371094 253 L 221.371094 270 L 205 270 Z M 205 253 " clip-rule="nonzero"/></clipPath></defs><g clip-path="url(#567a61062b)"><path fill="#231f20" d="M 125.085938 99.65625 C 126.296875 104.636719 130.765625 108.382812 136.128906 108.382812 C 142.40625 108.382812 147.515625 103.273438 147.515625 96.996094 C 147.515625 90.71875 142.40625 85.613281 136.128906 85.613281 C 130.765625 85.613281 126.296875 89.335938 125.085938 94.335938 L 66.308594 94.335938 L 66.308594 24.261719 C 71.289062 23.046875 75.035156 18.578125 75.035156 13.21875 C 75.035156 6.9375 69.929688 1.832031 63.652344 1.832031 C 57.371094 1.832031 52.265625 6.9375 52.265625 13.21875 C 52.265625 18.578125 55.988281 23.046875 60.992188 24.261719 L 60.992188 99.65625 Z M 136.128906 90.953125 C 139.449219 90.953125 142.152344 93.65625 142.152344 96.976562 C 142.152344 100.292969 139.449219 102.996094 136.128906 102.996094 C 132.808594 102.996094 130.109375 100.292969 130.109375 96.976562 C 130.109375 93.65625 132.808594 90.953125 136.128906 90.953125 Z M 57.628906 13.21875 C 57.628906 9.898438 60.332031 7.195312 63.652344 7.195312 C 66.96875 7.195312 69.671875 9.898438 69.671875 13.21875 C 69.671875 16.535156 66.96875 19.238281 63.652344 19.238281 C 60.308594 19.238281 57.628906 16.558594 57.628906 13.21875 Z M 57.628906 13.21875 " fill-opacity="1" fill-rule="nonzero"/></g><path fill="#231f20" d="M 124.722656 300.878906 C 124.722656 307.15625 129.832031 312.265625 136.109375 312.265625 C 142.386719 312.265625 147.492188 307.15625 147.492188 300.878906 C 147.492188 295.515625 143.769531 291.046875 138.769531 289.835938 L 138.769531 168.371094 C 143.75 167.15625 147.492188 162.6875 147.492188 157.324219 C 147.492188 151.046875 142.386719 145.941406 136.109375 145.941406 C 129.832031 145.941406 124.722656 151.046875 124.722656 157.324219 C 124.722656 162.6875 128.449219 167.15625 133.449219 168.371094 L 133.449219 289.835938 C 128.46875 291.046875 124.722656 295.515625 124.722656 300.878906 Z M 130.109375 157.324219 C 130.109375 154.003906 132.808594 151.300781 136.128906 151.300781 C 139.449219 151.300781 142.152344 154.003906 142.152344 157.324219 C 142.152344 160.644531 139.449219 163.347656 136.128906 163.347656 C 132.808594 163.347656 130.109375 160.644531 130.109375 157.324219 Z M 136.128906 294.859375 C 139.449219 294.859375 142.152344 297.558594 142.152344 300.878906 C 142.152344 304.199219 139.449219 306.902344 136.128906 306.902344 C 132.808594 306.902344 130.109375 304.199219 130.109375 300.878906 C 130.109375 297.558594 132.808594 294.859375 136.128906 294.859375 Z M 136.128906 294.859375 " fill-opacity="1" fill-rule="nonzero"/><path fill="#231f20" d="M 237.804688 237.378906 C 231.527344 237.378906 226.421875 242.488281 226.421875 248.765625 C 226.421875 254.128906 230.144531 258.597656 235.144531 259.808594 L 235.144531 360.164062 L 147.175781 360.164062 C 145.960938 355.1875 141.492188 351.441406 136.128906 351.441406 C 129.851562 351.441406 124.746094 356.546875 124.746094 362.824219 C 124.746094 369.105469 129.851562 374.210938 136.128906 374.210938 C 141.492188 374.210938 145.960938 370.488281 147.175781 365.484375 L 240.488281 365.484375 L 240.488281 259.789062 C 245.464844 258.574219 249.210938 254.105469 249.210938 248.742188 C 249.210938 242.488281 244.082031 237.378906 237.804688 237.378906 Z M 136.128906 368.847656 C 132.808594 368.847656 130.109375 366.144531 130.109375 362.824219 C 130.109375 359.507812 132.808594 356.804688 136.128906 356.804688 C 139.449219 356.804688 142.152344 359.507812 142.152344 362.824219 C 142.152344 366.144531 139.449219 368.847656 136.128906 368.847656 Z M 237.804688 254.789062 C 234.484375 254.789062 231.785156 252.085938 231.785156 248.765625 C 231.785156 245.445312 234.484375 242.742188 237.804688 242.742188 C 241.125 242.742188 243.828125 245.445312 243.828125 248.765625 C 243.828125 252.085938 241.125 254.789062 237.804688 254.789062 Z M 237.804688 254.789062 " fill-opacity="1" fill-rule="nonzero"/><path fill="#231f20" d="M 310.285156 85.589844 C 304.921875 85.589844 300.453125 89.3125 299.242188 94.316406 L 235.125 94.316406 L 235.125 174.582031 C 230.144531 175.796875 226.398438 180.265625 226.398438 185.628906 C 226.398438 191.90625 231.507812 197.011719 237.785156 197.011719 C 244.0625 197.011719 249.167969 191.90625 249.167969 185.628906 C 249.167969 180.265625 245.445312 175.796875 240.445312 174.582031 L 240.445312 99.65625 L 299.21875 99.65625 C 300.433594 104.636719 304.902344 108.382812 310.265625 108.382812 C 316.542969 108.382812 321.648438 103.273438 321.648438 96.996094 C 321.648438 90.71875 316.585938 85.589844 310.285156 85.589844 Z M 243.828125 185.628906 C 243.828125 188.945312 241.125 191.648438 237.804688 191.648438 C 234.484375 191.648438 231.785156 188.945312 231.785156 185.628906 C 231.785156 182.308594 234.484375 179.605469 237.804688 179.605469 C 241.125 179.605469 243.828125 182.285156 243.828125 185.628906 Z M 310.285156 102.996094 C 306.964844 102.996094 304.261719 100.292969 304.261719 96.976562 C 304.261719 93.65625 306.964844 90.953125 310.285156 90.953125 C 313.605469 90.953125 316.308594 93.65625 316.308594 96.976562 C 316.308594 100.292969 313.625 102.996094 310.285156 102.996094 Z M 310.285156 102.996094 " fill-opacity="1" fill-rule="nonzero"/><path fill="#231f20" d="M 129.957031 24.621094 C 135.320312 24.621094 139.789062 20.898438 141.003906 15.898438 L 307.605469 15.898438 L 307.605469 23.429688 C 302.625 24.644531 298.878906 29.113281 298.878906 34.476562 C 298.878906 40.753906 303.988281 45.859375 310.265625 45.859375 C 316.542969 45.859375 321.648438 40.753906 321.648438 34.476562 C 321.648438 29.113281 317.925781 24.644531 312.925781 23.429688 L 312.925781 10.558594 L 141.003906 10.558594 C 139.789062 5.578125 135.320312 1.832031 129.957031 1.832031 C 123.679688 1.832031 118.574219 6.9375 118.574219 13.21875 C 118.574219 19.496094 123.679688 24.621094 129.957031 24.621094 Z M 316.308594 34.476562 C 316.308594 37.796875 313.605469 40.496094 310.285156 40.496094 C 306.964844 40.496094 304.261719 37.796875 304.261719 34.476562 C 304.261719 31.15625 306.964844 28.453125 310.285156 28.453125 C 313.625 28.453125 316.308594 31.132812 316.308594 34.476562 Z M 129.957031 7.214844 C 133.277344 7.214844 135.980469 9.917969 135.980469 13.238281 C 135.980469 16.558594 133.277344 19.261719 129.957031 19.261719 C 126.640625 19.261719 123.9375 16.558594 123.9375 13.238281 C 123.9375 9.917969 126.640625 7.214844 129.957031 7.214844 Z M 129.957031 7.214844 " fill-opacity="1" fill-rule="nonzero"/><path fill="#231f20" d="M 102.0625 22.921875 L 118.851562 39.710938 L 280.707031 39.710938 L 300.601562 59.605469 C 297.941406 63.992188 298.453125 69.800781 302.242188 73.589844 C 306.6875 78.035156 313.902344 78.035156 318.351562 73.589844 C 322.796875 69.140625 322.796875 61.925781 318.351562 57.480469 C 314.5625 53.691406 308.753906 53.160156 304.371094 55.839844 L 282.917969 34.390625 L 121.0625 34.390625 L 105.828125 19.152344 C 108.507812 14.769531 107.976562 8.960938 104.1875 5.171875 C 99.742188 0.726562 92.527344 0.726562 88.078125 5.171875 C 83.632812 9.621094 83.632812 16.835938 88.078125 21.28125 C 91.867188 25.070312 97.675781 25.601562 102.0625 22.921875 Z M 310.285156 59.5 C 313.605469 59.5 316.308594 62.203125 316.308594 65.523438 C 316.308594 68.84375 313.605469 71.546875 310.285156 71.546875 C 306.964844 71.546875 304.261719 68.84375 304.261719 65.523438 C 304.285156 62.203125 306.964844 59.5 310.285156 59.5 Z M 96.144531 7.214844 C 99.464844 7.214844 102.167969 9.917969 102.167969 13.238281 C 102.167969 16.558594 99.464844 19.261719 96.144531 19.261719 C 92.824219 19.261719 90.121094 16.558594 90.121094 13.238281 C 90.121094 9.898438 92.824219 7.214844 96.144531 7.214844 Z M 96.144531 7.214844 " fill-opacity="1" fill-rule="nonzero"/><path fill="#231f20" d="M 90.464844 76.929688 C 95.824219 76.929688 100.292969 73.207031 101.507812 68.203125 L 143.003906 68.203125 L 169.582031 94.78125 L 169.582031 104.527344 C 164.601562 105.742188 160.859375 110.210938 160.859375 115.574219 C 160.859375 121.851562 165.964844 126.957031 172.242188 126.957031 C 178.519531 126.957031 183.628906 121.851562 183.628906 115.574219 C 183.628906 110.210938 179.902344 105.742188 174.902344 104.527344 L 174.902344 92.570312 L 145.214844 62.839844 L 101.484375 62.839844 C 100.273438 57.863281 95.804688 54.117188 90.441406 54.117188 C 84.164062 54.117188 79.058594 59.222656 79.058594 65.5 C 79.058594 71.78125 84.164062 76.929688 90.464844 76.929688 Z M 178.265625 115.574219 C 178.265625 118.894531 175.5625 121.597656 172.242188 121.597656 C 168.921875 121.597656 166.21875 118.894531 166.21875 115.574219 C 166.21875 112.253906 168.921875 109.550781 172.242188 109.550781 C 175.582031 109.574219 178.265625 112.253906 178.265625 115.574219 Z M 90.464844 59.5 C 93.78125 59.5 96.484375 62.203125 96.484375 65.523438 C 96.484375 68.84375 93.78125 71.546875 90.464844 71.546875 C 87.144531 71.546875 84.441406 68.84375 84.441406 65.523438 C 84.441406 62.203125 87.121094 59.5 90.464844 59.5 Z M 90.464844 59.5 " fill-opacity="1" fill-rule="nonzero"/><path fill="#231f20" d="M 127.722656 340.332031 C 132.171875 344.78125 139.386719 344.78125 143.832031 340.332031 C 147.621094 336.546875 148.152344 330.734375 145.472656 326.351562 L 174.347656 297.476562 L 174.199219 162.496094 L 174.199219 161.390625 L 145.664062 132.851562 C 148.34375 128.46875 147.8125 122.660156 144.023438 118.871094 C 139.578125 114.425781 132.363281 114.425781 127.914062 118.871094 C 123.46875 123.320312 123.46875 130.535156 127.914062 134.980469 C 131.703125 138.769531 137.492188 139.300781 141.898438 136.621094 L 168.859375 163.582031 L 169.027344 295.261719 L 141.726562 322.5625 C 137.34375 319.882812 131.535156 320.414062 127.746094 324.203125 C 128.171875 323.777344 128.574219 323.371094 128.808594 323.140625 C 128.617188 323.332031 128.277344 323.671875 127.746094 324.203125 C 127.492188 324.457031 127.277344 324.671875 127.085938 324.863281 C 127.277344 324.671875 127.511719 324.4375 127.746094 324.203125 C 123.296875 328.671875 123.296875 335.90625 127.722656 340.332031 Z M 135.960938 132.960938 C 132.640625 132.960938 129.9375 130.257812 129.9375 126.9375 C 129.9375 123.617188 132.640625 120.914062 135.960938 120.914062 C 139.28125 120.914062 141.980469 123.617188 141.980469 126.9375 C 141.980469 130.257812 139.28125 132.960938 135.960938 132.960938 Z M 135.789062 326.265625 C 139.109375 326.265625 141.8125 328.96875 141.8125 332.289062 C 141.8125 335.609375 139.109375 338.3125 135.789062 338.3125 C 132.46875 338.3125 129.765625 335.609375 129.765625 332.289062 C 129.765625 328.96875 132.46875 326.265625 135.789062 326.265625 Z M 135.789062 326.265625 " fill-opacity="1" fill-rule="nonzero"/><path fill="#231f20" d="M 256.445312 68.203125 C 257.660156 73.183594 262.128906 76.929688 267.492188 76.929688 C 273.769531 76.929688 278.875 71.820312 278.875 65.542969 C 278.875 59.265625 273.769531 54.160156 267.492188 54.160156 C 262.128906 54.160156 257.660156 57.882812 256.445312 62.882812 L 197.351562 62.882812 L 197.351562 181.585938 L 227.335938 211.566406 C 224.65625 215.953125 225.1875 221.761719 228.976562 225.546875 C 228.550781 225.121094 228.125 224.699219 227.890625 224.464844 C 228.082031 224.65625 228.421875 224.996094 228.976562 225.546875 C 231.1875 227.761719 230.082031 226.65625 228.976562 225.546875 C 233.421875 229.996094 240.636719 229.996094 245.082031 225.546875 C 249.53125 221.101562 249.53125 213.886719 245.082031 209.441406 C 241.296875 205.652344 235.488281 205.121094 231.101562 207.800781 L 202.695312 179.390625 L 202.695312 68.203125 Z M 267.492188 59.5 C 270.8125 59.5 273.515625 62.203125 273.515625 65.523438 C 273.515625 68.84375 270.8125 71.546875 267.492188 71.546875 C 264.171875 71.546875 261.46875 68.84375 261.46875 65.523438 C 261.46875 62.203125 264.171875 59.5 267.492188 59.5 Z M 237.039062 211.441406 C 240.359375 211.441406 243.0625 214.140625 243.0625 217.460938 C 243.0625 220.78125 240.359375 223.484375 237.039062 223.484375 C 233.71875 223.484375 231.015625 220.78125 231.015625 217.460938 C 231.015625 214.121094 233.71875 211.441406 237.039062 211.441406 Z M 237.039062 211.441406 " fill-opacity="1" fill-rule="nonzero"/><path fill="#231f20" d="M 211.417969 220.824219 C 211.417969 214.546875 206.3125 209.441406 200.035156 209.441406 C 193.757812 209.441406 188.648438 214.546875 188.648438 220.824219 C 188.648438 226.1875 192.375 230.65625 197.375 231.867188 L 197.375 324.351562 C 192.394531 325.566406 188.648438 330.035156 188.648438 335.394531 C 188.648438 341.671875 193.757812 346.78125 200.035156 346.78125 C 206.3125 346.78125 211.417969 341.671875 211.417969 335.394531 C 211.417969 330.035156 207.695312 325.566406 202.695312 324.351562 L 202.695312 231.847656 C 207.695312 230.65625 211.417969 226.164062 211.417969 220.824219 Z M 206.035156 335.394531 C 206.035156 338.714844 203.332031 341.417969 200.011719 341.417969 C 196.691406 341.417969 193.992188 338.714844 193.992188 335.394531 C 193.992188 332.078125 196.691406 329.375 200.011719 329.375 C 203.332031 329.375 206.035156 332.078125 206.035156 335.394531 Z M 200.035156 226.824219 C 196.714844 226.824219 194.011719 224.121094 194.011719 220.804688 C 194.011719 217.484375 196.714844 214.78125 200.035156 214.78125 C 203.355469 214.78125 206.054688 217.484375 206.054688 220.804688 C 206.035156 224.144531 203.355469 226.824219 200.035156 226.824219 Z M 200.035156 226.824219 " fill-opacity="1" fill-rule="nonzero"/><path fill="#00e7ff" d="M 187.582031 254.523438 C 187.238281 254.523438 186.894531 254.488281 186.554688 254.421875 C 186.214844 254.355469 185.882812 254.253906 185.566406 254.121094 C 185.246094 253.992188 184.941406 253.828125 184.652344 253.636719 C 184.363281 253.445312 184.097656 253.226562 183.851562 252.980469 C 183.609375 252.738281 183.390625 252.472656 183.199219 252.183594 C 183.003906 251.898438 182.84375 251.59375 182.710938 251.273438 C 182.578125 250.953125 182.476562 250.625 182.410156 250.285156 C 182.34375 249.949219 182.308594 249.605469 182.308594 249.257812 C 182.308594 248.914062 182.34375 248.570312 182.410156 248.234375 C 182.476562 247.894531 182.578125 247.566406 182.710938 247.246094 C 182.84375 246.925781 183.003906 246.621094 183.199219 246.335938 C 183.390625 246.046875 183.609375 245.78125 183.851562 245.539062 C 184.097656 245.292969 184.363281 245.074219 184.652344 244.882812 C 184.941406 244.691406 185.246094 244.527344 185.566406 244.398438 C 185.882812 244.265625 186.214844 244.164062 186.554688 244.097656 C 186.894531 244.03125 187.238281 243.996094 187.582031 243.996094 C 187.929688 243.996094 188.273438 244.03125 188.613281 244.097656 C 188.953125 244.164062 189.28125 244.265625 189.601562 244.398438 C 189.921875 244.527344 190.226562 244.691406 190.515625 244.882812 C 190.800781 245.074219 191.066406 245.292969 191.3125 245.539062 C 191.558594 245.78125 191.777344 246.046875 191.96875 246.335938 C 192.160156 246.621094 192.324219 246.925781 192.457031 247.246094 C 192.589844 247.566406 192.6875 247.894531 192.757812 248.234375 C 192.824219 248.570312 192.859375 248.914062 192.859375 249.257812 C 192.859375 249.605469 192.824219 249.949219 192.757812 250.285156 C 192.6875 250.625 192.589844 250.953125 192.457031 251.273438 C 192.324219 251.59375 192.160156 251.898438 191.96875 252.183594 C 191.777344 252.472656 191.558594 252.738281 191.3125 252.980469 C 191.066406 253.226562 190.800781 253.445312 190.515625 253.636719 C 190.226562 253.828125 189.921875 253.992188 189.601562 254.121094 C 189.28125 254.253906 188.953125 254.355469 188.613281 254.421875 C 188.273438 254.488281 187.929688 254.523438 187.582031 254.523438 Z M 187.582031 254.523438 " fill-opacity="1" fill-rule="nonzero"/><path fill="#00e7ff" d="M 186.265625 248.957031 L 187.382812 46.496094 L 188.511719 248.957031 Z M 186.265625 248.957031 " fill-opacity="1" fill-rule="nonzero"/><g clip-path="url(#b15e0d43c4)"><path fill="#00e7ff" d="M 200.859375 343.246094 C 200.339844 343.246094 199.820312 343.195312 199.308594 343.09375 C 198.796875 342.992188 198.300781 342.839844 197.820312 342.640625 C 197.335938 342.441406 196.878906 342.199219 196.445312 341.910156 C 196.011719 341.617188 195.609375 341.289062 195.242188 340.921875 C 194.871094 340.554688 194.542969 340.152344 194.25 339.71875 C 193.960938 339.285156 193.71875 338.828125 193.515625 338.347656 C 193.316406 337.867188 193.167969 337.371094 193.066406 336.859375 C 192.964844 336.351562 192.914062 335.835938 192.910156 335.3125 C 192.914062 334.792969 192.964844 334.277344 193.066406 333.765625 C 193.167969 333.253906 193.316406 332.757812 193.515625 332.277344 C 193.71875 331.796875 193.960938 331.339844 194.25 330.90625 C 194.542969 330.472656 194.871094 330.074219 195.242188 329.703125 C 195.609375 329.335938 196.011719 329.007812 196.445312 328.71875 C 196.878906 328.429688 197.335938 328.183594 197.820312 327.984375 C 198.300781 327.785156 198.796875 327.636719 199.308594 327.535156 C 199.820312 327.433594 200.339844 327.382812 200.859375 327.382812 C 201.382812 327.382812 201.898438 327.433594 202.410156 327.535156 C 202.921875 327.636719 203.421875 327.785156 203.902344 327.984375 C 204.386719 328.183594 204.84375 328.429688 205.277344 328.71875 C 205.710938 329.007812 206.113281 329.335938 206.480469 329.703125 C 206.851562 330.074219 207.179688 330.472656 207.46875 330.90625 C 207.761719 331.339844 208.003906 331.796875 208.203125 332.277344 C 208.40625 332.757812 208.554688 333.253906 208.65625 333.765625 C 208.757812 334.277344 208.808594 334.792969 208.808594 335.3125 C 208.808594 335.835938 208.757812 336.351562 208.65625 336.859375 C 208.554688 337.371094 208.40625 337.867188 208.203125 338.347656 C 208.003906 338.828125 207.761719 339.285156 207.46875 339.71875 C 207.179688 340.152344 206.851562 340.554688 206.480469 340.921875 C 206.113281 341.289062 205.710938 341.617188 205.277344 341.910156 C 204.84375 342.199219 204.386719 342.441406 203.902344 342.640625 C 203.421875 342.839844 202.921875 342.992188 202.410156 343.09375 C 201.898438 343.195312 201.382812 343.246094 200.859375 343.246094 Z M 200.859375 343.246094 " fill-opacity="1" fill-rule="nonzero"/></g><g clip-path="url(#f7b870e7b4)"><path fill="#00e7ff" d="M 199.738281 335.386719 L 200.21875 201.949219 L 200.4375 202.464844 L 162.300781 165.789062 L 162.136719 165.628906 L 162.136719 165.40625 L 162.664062 43.246094 L 163.191406 165.40625 L 163.027344 165.027344 L 201.433594 201.429688 L 201.652344 201.640625 L 201.652344 201.949219 L 201.984375 335.386719 Z M 199.738281 335.386719 " fill-opacity="1" fill-rule="nonzero"/></g><g clip-path="url(#8b2e13b3a2)"><path fill="#00e7ff" d="M 200.859375 343.246094 C 200.339844 343.246094 199.820312 343.195312 199.308594 343.09375 C 198.796875 342.992188 198.300781 342.839844 197.820312 342.640625 C 197.335938 342.441406 196.878906 342.199219 196.445312 341.910156 C 196.011719 341.617188 195.609375 341.289062 195.242188 340.921875 C 194.871094 340.554688 194.542969 340.152344 194.25 339.71875 C 193.960938 339.285156 193.71875 338.828125 193.515625 338.347656 C 193.316406 337.867188 193.167969 337.371094 193.066406 336.859375 C 192.964844 336.351562 192.914062 335.835938 192.910156 335.3125 C 192.914062 334.792969 192.964844 334.277344 193.066406 333.765625 C 193.167969 333.253906 193.316406 332.757812 193.515625 332.277344 C 193.71875 331.796875 193.960938 331.339844 194.25 330.90625 C 194.542969 330.472656 194.871094 330.074219 195.242188 329.703125 C 195.609375 329.335938 196.011719 329.007812 196.445312 328.71875 C 196.878906 328.429688 197.335938 328.183594 197.820312 327.984375 C 198.300781 327.785156 198.796875 327.636719 199.308594 327.535156 C 199.820312 327.433594 200.339844 327.382812 200.859375 327.382812 C 201.382812 327.382812 201.898438 327.433594 202.410156 327.535156 C 202.921875 327.636719 203.421875 327.785156 203.902344 327.984375 C 204.386719 328.183594 204.84375 328.429688 205.277344 328.71875 C 205.710938 329.007812 206.113281 329.335938 206.480469 329.703125 C 206.851562 330.074219 207.179688 330.472656 207.46875 330.90625 C 207.761719 331.339844 208.003906 331.796875 208.203125 332.277344 C 208.40625 332.757812 208.554688 333.253906 208.65625 333.765625 C 208.757812 334.277344 208.808594 334.792969 208.808594 335.3125 C 208.808594 335.835938 208.757812 336.351562 208.65625 336.859375 C 208.554688 337.371094 208.40625 337.867188 208.203125 338.347656 C 208.003906 338.828125 207.761719 339.285156 207.46875 339.71875 C 207.179688 340.152344 206.851562 340.554688 206.480469 340.921875 C 206.113281 341.289062 205.710938 341.617188 205.277344 341.910156 C 204.84375 342.199219 204.386719 342.441406 203.902344 342.640625 C 203.421875 342.839844 202.921875 342.992188 202.410156 343.09375 C 201.898438 343.195312 201.382812 343.246094 200.859375 343.246094 Z M 200.859375 343.246094 " fill-opacity="1" fill-rule="nonzero"/></g><g clip-path="url(#aa5a6eeddc)"><path fill="#00e7ff" d="M 199.738281 335.386719 L 200.21875 201.949219 L 200.4375 202.464844 L 162.300781 165.789062 L 162.136719 165.628906 L 162.136719 165.40625 L 162.664062 43.246094 L 163.191406 165.40625 L 163.027344 165.027344 L 201.433594 201.429688 L 201.652344 201.640625 L 201.652344 201.949219 L 201.984375 335.386719 Z M 199.738281 335.386719 " fill-opacity="1" fill-rule="nonzero"/></g><g clip-path="url(#97ffefe76e)"><path fill="#00e7ff" d="M 213.417969 269.816406 C 212.898438 269.816406 212.378906 269.765625 211.867188 269.664062 C 211.355469 269.5625 210.859375 269.410156 210.375 269.210938 C 209.894531 269.011719 209.4375 268.765625 209.003906 268.476562 C 208.570312 268.1875 208.167969 267.859375 207.796875 267.492188 C 207.429688 267.125 207.097656 266.722656 206.808594 266.289062 C 206.519531 265.855469 206.273438 265.398438 206.074219 264.917969 C 205.875 264.4375 205.722656 263.941406 205.621094 263.429688 C 205.519531 262.917969 205.46875 262.402344 205.46875 261.882812 C 205.46875 261.363281 205.519531 260.847656 205.621094 260.335938 C 205.722656 259.824219 205.875 259.328125 206.074219 258.847656 C 206.273438 258.367188 206.519531 257.910156 206.808594 257.476562 C 207.097656 257.042969 207.429688 256.644531 207.796875 256.273438 C 208.167969 255.90625 208.570312 255.578125 209.003906 255.289062 C 209.4375 255 209.894531 254.753906 210.375 254.554688 C 210.859375 254.355469 211.355469 254.207031 211.867188 254.105469 C 212.378906 254.003906 212.898438 253.953125 213.417969 253.953125 C 213.941406 253.953125 214.457031 254.003906 214.96875 254.105469 C 215.480469 254.207031 215.976562 254.355469 216.460938 254.554688 C 216.941406 254.753906 217.402344 255 217.835938 255.289062 C 218.269531 255.578125 218.671875 255.90625 219.039062 256.273438 C 219.410156 256.644531 219.738281 257.042969 220.027344 257.476562 C 220.316406 257.910156 220.5625 258.367188 220.761719 258.847656 C 220.960938 259.328125 221.113281 259.824219 221.214844 260.335938 C 221.316406 260.847656 221.367188 261.363281 221.367188 261.882812 C 221.367188 262.402344 221.316406 262.917969 221.214844 263.429688 C 221.113281 263.941406 220.960938 264.4375 220.761719 264.917969 C 220.5625 265.398438 220.316406 265.855469 220.027344 266.289062 C 219.738281 266.722656 219.410156 267.125 219.039062 267.492188 C 218.671875 267.859375 218.269531 268.1875 217.835938 268.476562 C 217.402344 268.765625 216.941406 269.011719 216.460938 269.210938 C 215.976562 269.410156 215.480469 269.5625 214.96875 269.664062 C 214.457031 269.765625 213.941406 269.816406 213.417969 269.816406 Z M 213.417969 269.816406 " fill-opacity="1" fill-rule="nonzero"/></g><path fill="#00e7ff" d="M 212.296875 260.507812 L 212.394531 241.195312 L 212.441406 231.539062 L 212.460938 226.710938 L 212.460938 225.589844 C 210.785156 225.574219 214.742188 225.679688 214.335938 225.597656 L 214.335938 225.609375 L 214.324219 226.804688 L 214.304688 229.21875 L 214.28125 231.632812 L 214.265625 232.851562 L 214.265625 232.914062 C 214.65625 233.015625 210.859375 232.894531 212.46875 232.898438 L 212.46875 231.71875 L 212.488281 226.890625 L 212.535156 217.230469 L 212.632812 197.914062 L 212.847656 198.425781 L 175.746094 161.742188 L 175.589844 161.585938 L 175.589844 161.367188 L 176.117188 44.140625 L 176.644531 161.371094 L 176.484375 160.996094 L 213.847656 197.402344 L 214.0625 197.609375 L 214.0625 197.914062 L 214.164062 217.226562 L 214.21875 226.882812 L 214.25 231.710938 L 214.25 232.835938 C 215.855469 232.851562 212.0625 232.75 212.453125 232.828125 L 212.453125 225.507812 C 212.050781 225.40625 216.007812 225.53125 214.332031 225.527344 L 214.332031 226.703125 L 214.363281 231.535156 L 214.417969 241.191406 L 214.523438 260.507812 Z M 212.296875 260.507812 " fill-opacity="1" fill-rule="nonzero"/></svg>